<?xml version="1.0" standalone="no"?>
<!DOCTYPE svg PUBLIC "-//W3C//DTD SVG 20010904//EN"
 "http://www.w3.org/TR/2001/REC-SVG-20010904/DTD/svg10.dtd">
<svg version="1.0" xmlns="http://www.w3.org/2000/svg"
 width="824.000000pt" height="824.000000pt" viewBox="0 0 824.000000 824.000000"
 preserveAspectRatio="xMidYMid meet">
<metadata>
Created by potrace 1.11, written by Peter Selinger 2001-2013
</metadata>
<g transform="translate(0.000000,824.000000) scale(0.100000,-0.100000)"
fill="#000000" stroke="none">
<path d="M4033 6645 c-15 -17 -17 -105 -3 -105 6 0 10 -18 10 -40 0 -22 -4
-40 -10 -40 -5 0 -10 -22 -10 -50 0 -27 -4 -50 -10 -50 -5 0 -10 -18 -10 -40
0 -22 -4 -40 -10 -40 -5 0 -10 -22 -10 -50 0 -27 -4 -50 -10 -50 -5 0 -10 -16
-10 -36 0 -19 -7 -42 -15 -50 -13 -13 -25 -5 -104 75 -50 50 -95 91 -101 91
-19 0 -60 48 -60 70 0 32 -44 70 -80 70 -41 0 -80 -39 -80 -80 0 -36 38 -80
70 -80 29 0 50 -23 50 -54 0 -14 5 -26 10 -26 6 0 10 -9 10 -20 0 -11 5 -20
10 -20 6 0 10 -22 10 -50 0 -27 5 -50 10 -50 6 0 10 -4 10 -10 0 -6 -27 -10
-60 -10 -33 0 -60 -4 -60 -10 0 -5 -9 -10 -20 -10 -11 0 -20 -4 -20 -10 0 -5
-9 -10 -20 -10 -11 0 -20 -4 -20 -10 0 -5 -7 -10 -15 -10 -20 0 -105 -85 -105
-105 0 -8 -4 -15 -10 -15 -5 0 -10 -13 -10 -30 0 -16 -4 -30 -10 -30 -5 0 -10
-9 -10 -20 0 -11 5 -20 10 -20 16 0 12 -109 -4 -126 -23 -22 -66 -18 -66 6 0
11 -4 20 -10 20 -5 0 -10 7 -10 16 0 20 -24 44 -44 44 -9 0 -16 5 -16 10 0 6
-9 10 -20 10 -11 0 -20 5 -20 10 0 6 -22 10 -50 10 -27 0 -50 -4 -50 -10 0 -5
-9 -10 -20 -10 -11 0 -20 -4 -20 -10 0 -5 -8 -10 -18 -10 -10 0 -24 -9 -32
-20 -8 -11 -22 -20 -32 -20 -10 0 -18 -4 -18 -10 0 -5 -13 -10 -30 -10 -16 0
-30 -4 -30 -10 0 -6 -27 -10 -60 -10 -33 0 -60 -4 -60 -10 0 -5 -9 -10 -20
-10 -11 0 -20 -4 -20 -10 0 -5 -7 -10 -15 -10 -20 0 -105 -85 -105 -105 0 -8
-4 -15 -10 -15 -5 0 -10 -18 -10 -40 0 -22 -4 -40 -10 -40 -5 0 -10 -9 -10
-20 0 -11 5 -20 10 -20 6 0 10 -13 10 -30 0 -16 5 -30 10 -30 6 0 10 -9 10
-20 0 -11 5 -20 10 -20 6 0 10 -9 10 -19 0 -11 6 -21 13 -24 6 -2 9 -8 5 -12
-4 -4 -21 6 -37 24 -16 17 -34 31 -40 31 -7 0 -47 36 -91 80 -44 44 -85 80
-92 80 -8 0 -20 9 -28 20 -8 12 -26 20 -42 20 -15 0 -28 5 -28 10 0 6 -40 10
-100 10 -60 0 -100 -4 -100 -10 0 -5 -9 -10 -20 -10 -11 0 -20 -4 -20 -10 0
-5 -7 -10 -15 -10 -20 0 -65 -45 -65 -65 0 -8 -4 -15 -10 -15 -6 0 -10 -33
-10 -78 0 -66 3 -80 20 -92 11 -8 20 -22 20 -32 0 -10 7 -18 15 -18 25 0 65
-46 65 -75 0 -14 -4 -25 -10 -25 -5 0 -10 -21 -10 -46 0 -46 -16 -74 -42 -74
-8 0 -20 -9 -28 -20 -8 -11 -22 -20 -32 -20 -10 0 -18 -4 -18 -10 0 -5 -7 -10
-16 -10 -19 0 -44 -24 -44 -42 0 -8 9 -20 20 -28 17 -12 20 -26 20 -82 0 -39
4 -68 10 -68 6 0 10 -37 10 -90 0 -53 4 -90 10 -90 6 0 10 -13 10 -30 0 -28 2
-30 40 -30 30 0 40 -4 40 -16 0 -27 27 -44 70 -44 43 0 70 17 70 44 0 12 10
16 40 16 33 0 40 3 40 20 0 11 5 20 10 20 6 0 10 33 10 80 0 47 4 80 10 80 6
0 10 36 10 88 0 76 3 89 20 102 11 8 20 20 20 28 0 17 -25 42 -42 42 -8 0 -20
9 -28 20 -8 11 -22 20 -32 20 -10 0 -18 5 -18 10 0 6 -7 10 -16 10 -28 0 -44
27 -44 74 0 25 -4 46 -10 46 -5 0 -10 14 -10 30 0 25 4 30 25 30 16 0 39 13
60 35 29 28 35 42 35 75 0 55 -52 110 -104 110 -19 0 -36 -6 -39 -12 -2 -7 -8
-10 -12 -6 -12 12 22 38 49 38 14 0 26 5 26 10 0 6 14 10 30 10 17 0 30 -4 30
-10 0 -5 13 -10 28 -10 16 0 34 -8 42 -20 8 -11 20 -20 28 -20 15 0 82 -65 82
-80 0 -6 27 -38 60 -70 33 -32 60 -64 60 -70 0 -6 -18 -29 -40 -50 -22 -21
-40 -45 -40 -52 0 -7 -9 -20 -20 -28 -16 -12 -20 -26 -20 -78 0 -58 2 -65 35
-97 19 -19 41 -35 50 -35 8 0 15 -4 15 -10 0 -5 9 -10 20 -10 11 0 20 -4 20
-10 0 -5 11 -10 25 -10 14 0 37 -11 50 -25 23 -23 25 -31 25 -130 0 -63 4
-105 10 -105 6 0 10 -30 10 -70 0 -40 4 -70 10 -70 6 0 10 -22 10 -50 0 -27 5
-50 10 -50 6 0 10 -22 10 -50 0 -27 5 -50 10 -50 6 0 10 -18 10 -40 0 -22 5
-40 10 -40 6 0 10 -13 10 -30 0 -16 5 -30 10 -30 6 0 10 -13 10 -30 0 -16 5
-30 10 -30 6 0 10 -13 10 -30 0 -16 5 -30 10 -30 6 0 10 -13 10 -30 0 -16 5
-30 10 -30 6 0 10 -9 10 -20 0 -11 5 -20 10 -20 6 0 10 -9 10 -20 0 -11 -4
-20 -8 -20 -4 0 -14 9 -22 20 -8 12 -26 20 -42 20 -15 0 -28 5 -28 10 0 6 -18
10 -40 10 -38 0 -40 2 -40 30 0 17 5 30 10 30 6 0 10 14 10 30 0 17 5 30 10
30 6 0 10 27 10 60 0 33 -4 60 -10 60 -5 0 -10 14 -10 30 0 17 -4 30 -10 30
-5 0 -10 9 -10 20 0 11 -4 20 -10 20 -5 0 -10 7 -10 15 0 20 -105 125 -125
125 -8 0 -15 5 -15 10 0 6 -9 10 -20 10 -11 0 -20 5 -20 10 0 6 -13 10 -30 10
-16 0 -30 5 -30 10 0 6 -53 10 -140 10 -87 0 -140 -4 -140 -10 0 -5 -13 -10
-30 -10 -16 0 -30 -4 -30 -10 0 -5 -9 -10 -20 -10 -11 0 -20 -4 -20 -10 0 -5
-8 -10 -18 -10 -10 0 -24 -9 -32 -20 -8 -11 -20 -20 -28 -20 -7 0 -28 -16 -47
-35 -19 -19 -35 -40 -35 -47 0 -8 -9 -20 -20 -28 -11 -8 -20 -22 -20 -32 0
-10 -4 -18 -10 -18 -5 0 -10 -9 -10 -20 0 -11 -4 -20 -10 -20 -5 0 -10 -13
-10 -30 0 -16 -4 -30 -10 -30 -6 0 -10 -33 -10 -79 0 -54 -4 -81 -12 -85 -10
-5 -10 -7 0 -12 22 -10 12 -24 -18 -24 -16 0 -30 5 -30 10 0 6 -18 10 -40 10
-22 0 -40 5 -40 10 0 6 -27 10 -60 10 -33 0 -60 -4 -60 -10 0 -5 -13 -10 -30
-10 -16 0 -30 -4 -30 -10 0 -5 -7 -10 -15 -10 -26 0 -105 -86 -105 -115 0 -14
-4 -25 -10 -25 -5 0 -10 -22 -10 -50 0 -27 5 -50 10 -50 6 0 10 -13 10 -28 0
-16 8 -34 20 -42 11 -8 20 -20 20 -28 0 -18 25 -42 44 -42 9 0 16 -4 16 -10 0
-5 14 -10 30 -10 17 0 30 -4 30 -10 0 -5 14 -10 30 -10 17 0 30 5 30 10 0 6 7
10 15 10 9 0 31 16 50 35 32 31 35 40 35 90 0 30 -4 55 -10 55 -5 0 -10 9 -10
20 0 13 -7 20 -20 20 -11 0 -20 5 -20 10 0 6 -22 10 -50 10 -27 0 -50 5 -50
10 0 6 14 10 30 10 17 0 30 5 30 10 0 6 14 10 30 10 17 0 30 -4 30 -10 0 -5
14 -10 30 -10 17 0 30 -4 30 -10 0 -5 7 -10 15 -10 19 0 105 -84 105 -103 0
-7 9 -19 20 -27 11 -8 20 -21 20 -30 0 -9 9 -22 20 -30 11 -8 20 -22 20 -32 0
-10 5 -18 10 -18 6 0 10 -8 10 -18 0 -10 9 -24 20 -32 11 -8 20 -20 20 -27 0
-16 205 -223 221 -223 6 0 24 -13 39 -30 15 -16 35 -30 44 -30 9 0 16 -4 16
-10 0 -5 8 -10 18 -10 10 0 24 -9 32 -20 8 -11 22 -20 32 -20 10 0 18 -4 18
-10 0 -5 9 -10 20 -10 11 0 20 -4 20 -10 0 -5 9 -10 20 -10 34 0 23 -29 -30
-80 -27 -27 -50 -55 -50 -62 0 -8 -9 -20 -20 -28 -11 -8 -20 -22 -20 -32 0
-10 -4 -18 -10 -18 -5 0 -10 -13 -10 -30 0 -16 -4 -30 -10 -30 -5 0 -10 -9
-10 -20 0 -11 -4 -20 -10 -20 -5 0 -10 -22 -10 -50 0 -27 -4 -50 -10 -50 -6 0
-10 -43 -10 -110 0 -67 4 -110 10 -110 6 0 10 -18 10 -40 0 -22 5 -40 10 -40
6 0 10 -13 10 -30 0 -16 5 -30 10 -30 6 0 10 -9 10 -20 0 -11 5 -20 10 -20 6
0 10 -9 10 -20 0 -11 5 -20 10 -20 6 0 10 -9 10 -20 0 -11 5 -20 10 -20 6 0
10 -7 10 -15 0 -19 144 -165 163 -165 7 0 19 -9 27 -20 8 -11 22 -20 32 -20
10 0 18 -4 18 -10 0 -5 9 -10 20 -10 11 0 20 -4 20 -10 0 -5 9 -10 20 -10 11
0 20 -4 20 -10 0 -5 14 -10 30 -10 17 0 30 -4 30 -10 0 -5 18 -10 40 -10 22 0
40 -4 40 -10 0 -6 47 -10 120 -10 73 0 120 4 120 10 0 6 14 10 30 10 17 0 30
5 30 10 0 6 14 10 30 10 17 0 30 5 30 10 0 6 9 10 20 10 11 0 20 5 20 10 0 6
9 10 20 10 11 0 20 5 20 10 0 6 9 10 20 10 11 0 20 5 20 10 0 6 7 10 15 10 19
0 185 164 185 183 0 7 9 19 20 27 11 8 20 22 20 32 0 10 5 18 10 18 6 0 10 9
10 20 0 11 5 20 10 20 6 0 10 14 10 30 0 17 5 30 10 30 6 0 10 18 10 40 0 22
5 40 10 40 6 0 10 50 10 130 0 80 -4 130 -10 130 -5 0 -10 18 -10 40 0 22 -4
40 -10 40 -5 0 -10 14 -10 30 0 17 -4 30 -10 30 -5 0 -10 9 -10 20 0 11 -4 20
-10 20 -5 0 -10 7 -10 16 0 9 -9 25 -21 35 -19 16 -20 20 -6 34 10 9 33 15 61
15 25 0 46 5 46 10 0 6 18 10 40 10 22 0 40 5 40 10 0 6 14 10 30 10 17 0 30
5 30 10 0 6 23 10 50 10 28 0 50 -4 50 -10 0 -6 97 -10 270 -10 173 0 270 4
270 10 0 6 30 10 70 10 40 0 70 -4 70 -10 0 -5 14 -10 30 -10 17 0 30 -4 30
-10 0 -5 18 -10 40 -10 22 0 40 -4 40 -10 0 -5 23 -10 50 -10 28 0 50 -4 50
-10 0 -5 9 -10 20 -10 11 0 20 -4 20 -10 0 -5 -4 -10 -10 -10 -5 0 -10 -9 -10
-20 0 -11 -4 -20 -10 -20 -5 0 -10 -9 -10 -20 0 -11 -4 -20 -10 -20 -5 0 -10
-9 -10 -20 0 -11 -4 -20 -10 -20 -5 0 -10 -13 -10 -30 0 -16 -4 -30 -10 -30
-5 0 -10 -22 -10 -50 0 -27 -4 -50 -10 -50 -6 0 -10 -37 -10 -90 0 -53 4 -90
10 -90 6 0 10 -22 10 -50 0 -27 5 -50 10 -50 6 0 10 -13 10 -30 0 -16 5 -30
10 -30 6 0 10 -9 10 -20 0 -11 5 -20 10 -20 6 0 10 -9 10 -20 0 -11 5 -20 10
-20 6 0 10 -8 10 -18 0 -10 9 -24 20 -32 11 -8 20 -20 20 -27 0 -16 105 -123
121 -123 6 0 24 -13 39 -30 15 -16 35 -30 44 -30 9 0 16 -4 16 -10 0 -5 9 -10
20 -10 11 0 20 -4 20 -10 0 -5 9 -10 20 -10 11 0 20 -4 20 -10 0 -5 14 -10 30
-10 17 0 30 -4 30 -10 0 -5 9 -10 20 -10 11 0 20 -4 20 -10 0 -5 18 -10 40
-10 22 0 40 -4 40 -10 0 -6 27 -10 60 -10 33 0 60 4 60 10 0 6 23 10 50 10 28
0 50 5 50 10 0 6 14 10 30 10 17 0 30 5 30 10 0 6 9 10 20 10 11 0 20 5 20 10
0 6 14 10 30 10 17 0 30 5 30 10 0 6 8 10 18 10 10 0 24 9 32 20 8 11 20 20
27 20 19 0 203 186 203 205 0 8 5 15 10 15 6 0 10 9 10 20 0 11 5 20 10 20 6
0 10 9 10 20 0 11 5 20 10 20 6 0 10 9 10 20 0 11 5 20 10 20 6 0 10 18 10 40
0 22 5 40 10 40 6 0 10 57 10 150 0 93 -4 150 -10 150 -5 0 -10 14 -10 30 0
17 -4 30 -10 30 -5 0 -10 14 -10 30 0 17 -4 30 -10 30 -5 0 -10 9 -10 20 0 11
-4 20 -10 20 -5 0 -10 9 -10 20 0 11 -4 20 -10 20 -5 0 -10 7 -10 16 0 8 -27
42 -60 74 -33 32 -60 64 -60 70 0 17 26 40 44 40 9 0 16 5 16 10 0 6 8 10 18
10 10 0 24 9 32 20 8 11 21 20 30 20 9 0 22 9 30 20 8 11 21 20 28 20 8 0 27
14 42 30 15 17 33 30 39 30 15 0 161 146 161 161 0 6 14 24 30 39 17 15 30 34
30 42 0 7 9 20 20 28 11 8 20 22 20 32 0 10 7 18 16 18 25 0 44 26 44 60 0 24
12 42 55 85 30 30 61 55 70 55 8 0 15 5 15 10 0 6 14 10 30 10 17 0 30 5 30
10 0 6 32 10 75 10 73 0 77 -1 110 -35 32 -32 35 -39 35 -95 0 -56 -3 -63 -35
-95 -31 -32 -40 -35 -90 -35 -30 0 -55 5 -55 10 0 6 -9 10 -20 10 -13 0 -20 7
-20 20 0 11 -4 20 -10 20 -5 0 -10 9 -10 20 0 11 -4 20 -10 20 -5 0 -10 -13
-10 -30 0 -16 5 -30 10 -30 6 0 10 -7 10 -15 0 -20 45 -65 65 -65 8 0 15 -4
15 -10 0 -5 18 -10 40 -10 22 0 40 5 40 10 0 6 14 10 30 10 30 0 41 15 18 23
-8 2 4 20 30 45 23 22 42 48 42 56 0 9 5 16 10 16 6 0 10 14 10 30 0 17 5 30
10 30 6 0 10 18 10 40 0 22 -4 40 -10 40 -5 0 -10 9 -10 20 0 11 -4 20 -10 20
-5 0 -10 7 -10 15 0 20 -65 85 -85 85 -8 0 -15 5 -15 10 0 6 -18 10 -40 10
-22 0 -40 5 -40 10 0 6 -22 10 -50 10 -27 0 -50 -4 -50 -10 0 -5 -18 -10 -40
-10 -22 0 -40 -4 -40 -10 0 -5 -13 -10 -30 -10 l-30 0 0 90 c0 53 -4 90 -10
90 -5 0 -10 18 -10 40 0 22 -4 40 -10 40 -5 0 -10 9 -10 20 0 11 -4 20 -10 20
-5 0 -10 8 -10 18 0 10 -9 24 -20 32 -11 8 -20 20 -20 28 0 16 -45 62 -61 62
-6 0 -24 14 -39 30 -15 17 -35 30 -44 30 -9 0 -16 5 -16 10 0 6 -13 10 -30 10
-16 0 -30 5 -30 10 0 6 -13 10 -30 10 -16 0 -30 5 -30 10 0 6 -50 10 -130 10
-80 0 -130 -4 -130 -10 0 -5 -13 -10 -30 -10 -16 0 -30 -4 -30 -10 0 -5 -9
-10 -20 -10 -11 0 -20 -4 -20 -10 0 -5 -7 -10 -15 -10 -20 0 -145 -125 -145
-145 0 -8 -4 -15 -10 -15 -5 0 -10 -13 -10 -30 0 -16 -4 -30 -10 -30 -6 0 -10
-30 -10 -70 0 -40 4 -70 10 -70 6 0 10 -13 10 -30 0 -16 5 -30 10 -30 6 0 10
-13 10 -30 0 -28 -2 -30 -40 -30 -22 0 -40 -4 -40 -10 0 -5 -9 -10 -20 -10
-11 0 -20 -4 -20 -10 0 -5 -9 -10 -20 -10 -11 0 -20 -4 -20 -10 0 -5 -9 -10
-19 -10 -11 0 -21 -6 -24 -12 -2 -8 -8 -9 -13 -4 -5 5 -4 11 4 13 6 3 12 13
12 24 0 10 5 19 10 19 6 0 10 14 10 30 0 17 5 30 10 30 6 0 10 9 10 20 0 11 5
20 10 20 6 0 10 14 10 30 0 17 5 30 10 30 6 0 10 14 10 30 0 17 5 30 10 30 6
0 10 14 10 30 0 17 5 30 10 30 6 0 10 18 10 40 0 22 5 40 10 40 6 0 10 14 10
30 0 17 5 30 10 30 6 0 10 23 10 50 0 28 5 50 10 50 6 0 10 18 10 40 0 22 5
40 10 40 6 0 10 27 10 60 0 33 4 60 10 60 6 0 10 40 10 100 0 93 1 100 20 100
11 0 20 5 20 10 0 6 9 10 20 10 11 0 20 5 20 10 0 6 14 10 30 10 17 0 30 5 30
10 0 6 14 10 30 10 17 0 30 5 30 10 0 6 9 10 20 10 11 0 20 5 20 10 0 6 7 10
16 10 20 0 44 24 44 44 0 9 5 16 10 16 6 0 10 23 10 50 0 28 -4 50 -10 50 -5
0 -10 9 -10 20 0 11 -4 20 -10 20 -5 0 -10 7 -10 15 0 20 -65 85 -85 85 -9 0
-15 9 -15 25 0 19 20 45 70 95 39 38 70 74 70 80 0 15 25 40 40 40 7 0 25 14
40 30 17 18 38 30 54 30 14 0 26 5 26 10 0 6 14 10 30 10 17 0 30 -4 30 -10 0
-5 12 -10 26 -10 27 0 61 -26 49 -38 -4 -4 -10 -1 -12 6 -3 6 -20 12 -39 12
-37 0 -84 -36 -84 -65 0 -8 -4 -15 -10 -15 -5 0 -10 -13 -10 -30 0 -16 5 -30
10 -30 6 0 10 -7 10 -15 0 -25 46 -65 75 -65 21 0 25 -5 25 -30 0 -16 -4 -30
-10 -30 -5 0 -10 -21 -10 -46 0 -46 -16 -74 -42 -74 -8 0 -20 -9 -28 -20 -8
-11 -21 -20 -30 -20 -9 0 -22 -9 -30 -20 -8 -11 -22 -20 -32 -20 -10 0 -18 -4
-18 -10 0 -5 5 -10 10 -10 6 0 10 -9 10 -20 0 -11 5 -20 10 -20 6 0 10 -27 10
-60 0 -33 4 -60 10 -60 6 0 10 -37 10 -90 0 -53 4 -90 10 -90 6 0 10 -18 10
-40 l0 -40 40 0 c30 0 40 -4 40 -16 0 -27 27 -44 70 -44 34 0 48 6 70 30 15
17 38 30 50 30 40 0 50 22 50 114 0 51 4 86 10 86 6 0 10 33 10 80 0 47 4 80
10 80 6 0 10 9 10 20 0 11 5 20 10 20 15 0 12 29 -4 46 -8 8 -21 14 -28 14 -8
0 -20 9 -28 20 -8 11 -21 20 -30 20 -9 0 -22 9 -30 20 -8 11 -22 20 -32 20
-15 0 -18 9 -18 60 0 33 -4 60 -10 60 -5 0 -10 7 -10 16 0 18 23 44 40 44 16
0 60 47 60 65 0 8 5 15 10 15 6 0 10 14 10 30 0 17 5 30 10 30 6 0 10 14 10
30 0 17 -4 30 -10 30 -5 0 -10 11 -10 25 0 29 -79 115 -105 115 -8 0 -15 5
-15 10 0 6 -43 10 -110 10 -67 0 -110 -4 -110 -10 0 -5 -9 -10 -20 -10 -11 0
-20 -4 -20 -10 0 -5 -9 -10 -20 -10 -11 0 -20 -4 -20 -10 0 -5 -7 -10 -15 -10
-9 0 -51 -36 -95 -80 -44 -44 -82 -80 -85 -80 -3 0 -5 41 -5 90 0 53 -4 90
-10 90 -5 0 -10 9 -10 20 0 11 -4 20 -10 20 -5 0 -10 7 -10 15 0 19 -44 65
-62 65 -8 0 -20 9 -28 20 -8 11 -22 20 -32 20 -10 0 -18 5 -18 10 0 6 -27 10
-60 10 -33 0 -60 4 -60 10 0 6 -13 10 -30 10 -16 0 -30 5 -30 10 0 6 -9 10
-20 10 -11 0 -20 5 -20 10 0 6 -8 10 -18 10 -10 0 -24 9 -32 20 -8 12 -26 20
-42 20 -15 0 -28 5 -28 10 0 6 -18 10 -40 10 -22 0 -40 -4 -40 -10 0 -5 -9
-10 -20 -10 -11 0 -20 -4 -20 -10 0 -5 -7 -10 -15 -10 -18 0 -65 -44 -65 -60
0 -20 -28 -40 -54 -40 l-26 0 0 120 c0 73 -4 120 -10 120 -5 0 -10 7 -10 15 0
19 -64 85 -82 85 -8 0 -20 9 -28 20 -8 11 -22 20 -32 20 -10 0 -18 5 -18 10 0
6 -13 10 -30 10 -16 0 -30 5 -30 10 0 6 -30 10 -70 10 -40 0 -70 -4 -70 -10 0
-5 -9 -10 -20 -10 -18 0 -20 7 -20 60 0 33 4 60 10 60 6 0 10 18 10 40 0 22 5
40 10 40 6 0 10 14 10 30 0 28 3 30 35 30 38 0 85 36 85 64 0 8 6 17 13 20 10
5 10 7 0 12 -7 3 -13 12 -13 21 0 26 -28 43 -70 43 -43 0 -70 -17 -70 -44 0
-9 -4 -16 -10 -16 -5 0 -10 -12 -10 -26 0 -26 -20 -54 -40 -54 -6 0 -47 -36
-91 -81 -70 -71 -81 -78 -94 -65 -8 8 -15 31 -15 50 0 20 -4 36 -10 36 -5 0
-10 18 -10 40 0 22 -4 40 -10 40 -5 0 -10 18 -10 40 0 22 -4 40 -10 40 -5 0
-10 18 -10 40 0 22 -4 40 -10 40 -6 0 -10 27 -10 60 0 33 4 60 10 60 6 0 10 9
10 20 0 11 -4 20 -10 20 -5 0 -10 7 -10 16 0 8 -6 22 -14 30 -19 18 -97 18
-113 -1z m47 -55 c0 -23 -4 -30 -20 -30 -23 0 -27 23 -7 45 19 22 27 18 27
-15z m-494 -244 c21 -21 17 -46 -6 -46 -16 0 -20 7 -20 30 0 34 5 37 26 16z
m114 -166 c0 -11 5 -20 10 -20 6 0 10 -13 10 -30 0 -16 5 -30 10 -30 6 0 10
-18 10 -39 0 -22 5 -41 13 -44 6 -2 9 -8 5 -12 -13 -14 -38 24 -38 59 0 20 -4
36 -10 36 -5 0 -10 14 -10 30 0 17 -4 30 -10 30 -5 0 -10 9 -10 20 0 11 5 20
10 20 6 0 10 -9 10 -20z m280 -1385 c0 -14 -11 -37 -25 -50 -19 -20 -34 -25
-75 -25 -44 0 -55 4 -85 35 -19 19 -35 37 -35 40 0 3 27 5 60 5 33 0 60 4 60
10 0 6 23 10 50 10 47 0 50 -2 50 -25z m340 15 c0 -5 14 -10 30 -10 17 0 30
-2 30 -5 0 -12 -50 -55 -64 -55 -8 0 -17 -6 -20 -12 -5 -10 -7 -10 -12 0 -3 6
-17 12 -30 12 -28 0 -74 41 -74 65 0 12 14 15 70 15 40 0 70 -4 70 -10z m-820
-470 l0 -440 -46 0 c-69 0 -74 9 -74 150 l0 121 -35 34 c-19 19 -39 35 -45 35
-24 0 -40 30 -40 74 l0 46 50 0 c49 0 50 1 50 30 0 17 5 30 10 30 6 0 10 23
10 50 0 28 5 50 10 50 6 0 10 9 10 20 0 11 -4 20 -10 20 -5 0 -10 7 -10 16 0
19 -24 44 -42 44 -8 0 -20 9 -28 20 -8 11 -22 20 -32 20 -10 0 -18 5 -18 10 0
6 -13 10 -30 10 -16 0 -30 -4 -30 -10 0 -5 -8 -10 -18 -10 -10 0 -24 -9 -32
-20 -8 -12 -26 -20 -42 -20 -15 0 -28 -4 -28 -10 0 -5 -13 -10 -30 -10 -27 0
-30 -3 -30 -30 0 -16 5 -30 10 -30 6 0 10 -13 10 -30 0 -16 5 -30 10 -30 6 0
10 -11 10 -25 0 -27 -78 -115 -103 -115 -7 0 -19 -9 -27 -20 -8 -11 -22 -20
-32 -20 -10 0 -18 -4 -18 -10 0 -5 -9 -10 -20 -10 -19 0 -20 7 -20 166 0 172
5 194 44 194 9 0 16 5 16 10 0 6 9 10 20 10 11 0 20 5 20 10 0 6 14 10 30 10
17 0 30 5 30 10 0 6 23 10 50 10 28 0 50 5 50 10 0 6 30 10 70 10 40 0 70 4
70 10 0 6 27 10 60 10 33 0 60 4 60 10 0 6 27 10 60 10 33 0 60 4 60 10 0 6 5
10 10 10 7 0 10 -153 10 -440z m606 406 c8 -8 14 -20 14 -26 0 -17 26 -40 44
-40 9 0 16 -4 16 -10 0 -5 9 -10 20 -10 11 0 20 -4 20 -10 0 -6 29 -10 68 -10
56 0 70 3 82 20 8 11 22 20 32 20 10 0 18 5 18 10 0 6 5 10 10 10 6 0 10 -135
10 -386 0 -321 -2 -388 -14 -400 -12 -12 -73 -14 -356 -14 -283 0 -344 2 -356
14 -12 12 -14 78 -14 390 0 244 4 376 10 376 6 0 10 -4 10 -10 0 -5 9 -10 20
-10 11 0 20 -4 20 -10 0 -5 9 -10 20 -10 11 0 20 -4 20 -10 0 -6 33 -10 80
-10 47 0 80 4 80 10 0 6 7 10 15 10 9 0 36 20 60 45 25 24 45 51 45 60 0 19 7
19 26 1z m754 4 c0 -5 14 -10 30 -10 33 0 40 -21 16 -46 -17 -16 -106 -20
-106 -4 0 6 -7 10 -15 10 -15 0 -65 42 -65 55 0 3 32 5 70 5 40 0 70 -4 70
-10z m1220 -10 c0 -11 5 -20 10 -20 6 0 10 -57 10 -150 l0 -150 -30 0 -30 0 0
90 c0 53 -4 90 -10 90 -6 0 -10 33 -10 80 l0 80 30 0 c23 0 30 -4 30 -20z
m126 6 c17 -17 21 -226 4 -226 -5 0 -10 -22 -10 -50 0 -49 -1 -50 -30 -50
l-30 0 0 140 c0 87 -4 140 -10 140 -14 0 -12 28 3 45 16 19 55 19 73 1z m114
-106 c0 -73 -4 -120 -10 -120 -5 0 -10 -22 -10 -50 0 -49 -1 -50 -30 -50 l-30
0 0 120 c0 73 4 120 10 120 6 0 10 23 10 50 0 49 1 50 30 50 l30 0 0 -120z
m-4334 86 c11 -11 14 -49 14 -170 l0 -156 -30 0 -30 0 0 100 c0 60 -4 100 -10
100 -6 0 -10 30 -10 70 0 69 1 70 26 70 14 0 32 -6 40 -14z m120 0 c11 -11 14
-47 14 -156 0 -154 -5 -170 -54 -170 l-26 0 0 170 0 170 26 0 c14 0 32 -6 40
-14z m114 -106 c0 -73 -4 -120 -10 -120 -5 0 -10 -22 -10 -50 0 -53 -16 -66
-46 -36 -16 17 -19 46 -4 46 6 0 10 53 10 140 l0 140 30 0 30 0 0 -120z m1780
95 c0 -3 -11 -17 -25 -30 -21 -22 -33 -25 -90 -25 -37 0 -65 4 -65 10 0 6 -9
10 -20 10 -11 0 -20 5 -20 10 0 6 14 10 30 10 17 0 30 -4 30 -10 0 -5 18 -10
40 -10 22 0 40 5 40 10 0 6 9 10 20 10 11 0 20 5 20 10 0 6 9 10 20 10 11 0
20 -2 20 -5z m1100 -5 c0 -5 14 -10 30 -10 17 0 30 -4 30 -10 0 -5 14 -10 30
-10 17 0 30 -4 30 -10 0 -5 18 -10 40 -10 22 0 40 -4 40 -10 0 -5 12 -10 26
-10 14 0 32 -6 40 -14 16 -17 19 -46 4 -46 -6 0 -10 -30 -10 -70 0 -40 -4 -70
-10 -70 -5 0 -10 -22 -10 -50 0 -38 -4 -50 -15 -50 -19 0 -185 164 -185 183 0
7 -9 19 -20 27 -11 8 -20 22 -20 32 0 10 -4 18 -10 18 -5 0 -10 14 -10 30 0
17 -4 30 -10 30 -5 0 -10 14 -10 30 0 23 4 30 20 30 11 0 20 -4 20 -10z m-410
-70 c21 -22 46 -40 54 -40 9 0 16 -4 16 -10 0 -6 27 -10 60 -10 33 0 60 4 60
10 0 15 29 12 46 -4 8 -8 14 -31 14 -50 0 -20 5 -36 10 -36 6 0 10 -18 10 -40
0 -22 5 -40 10 -40 6 0 10 -18 10 -40 0 -22 5 -40 10 -40 6 0 10 -13 10 -30 0
-16 5 -30 10 -30 6 0 10 -13 10 -30 0 -16 5 -30 10 -30 6 0 10 -9 10 -20 0
-11 5 -20 10 -20 6 0 10 -9 10 -20 0 -11 5 -20 10 -20 6 0 10 -8 10 -18 0 -10
9 -24 20 -32 11 -8 20 -21 20 -30 0 -9 9 -22 20 -30 11 -8 20 -20 20 -28 0
-18 -46 -62 -65 -62 -8 0 -15 -4 -15 -10 0 -5 -13 -10 -30 -10 -16 0 -30 -4
-30 -10 0 -6 -70 -10 -190 -10 l-190 0 0 390 c0 215 3 390 6 390 3 0 23 -18
44 -40z m-1530 -246 c0 -16 -12 -37 -30 -54 -16 -15 -30 -34 -30 -42 0 -7 -9
-20 -20 -28 -11 -8 -20 -22 -20 -32 0 -10 -4 -18 -10 -18 -5 0 -10 -9 -10 -20
0 -11 -4 -20 -10 -20 -5 0 -10 -13 -10 -30 0 -16 -4 -30 -10 -30 -5 0 -10 -9
-10 -20 0 -11 -4 -20 -10 -20 -5 0 -10 -13 -10 -30 0 -34 -5 -37 -26 -16 -16
17 -19 46 -4 46 6 0 10 9 10 20 0 11 5 20 10 20 6 0 10 9 10 20 0 11 5 20 10
20 6 0 10 9 10 20 0 11 5 20 10 20 6 0 10 9 10 20 0 11 5 20 10 20 6 0 10 9
10 20 0 11 5 20 10 20 6 0 10 9 10 20 0 11 5 20 10 20 6 0 10 14 10 30 0 17 5
30 10 30 6 0 10 9 10 20 0 16 7 20 30 20 26 0 30 -4 30 -26z m-820 -304 c0 -5
14 -10 30 -10 17 0 30 -4 30 -10 0 -5 7 -10 15 -10 26 0 85 -66 85 -95 0 -14
5 -25 10 -25 6 0 10 -18 10 -40 0 -22 -4 -40 -10 -40 -5 0 -10 -9 -10 -20 0
-11 -4 -20 -10 -20 -5 0 -10 7 -10 15 0 9 -11 27 -25 40 -20 21 -34 25 -85 25
-51 0 -65 -4 -85 -25 -21 -20 -25 -34 -25 -85 0 -56 3 -63 35 -95 19 -19 41
-35 50 -35 8 0 15 -9 15 -20 0 -11 -4 -20 -10 -20 -5 0 -10 -8 -10 -18 0 -10
-9 -24 -20 -32 -12 -8 -20 -26 -20 -42 0 -15 -4 -28 -10 -28 -5 0 -10 -22 -10
-50 0 -27 -4 -50 -10 -50 -5 0 -10 -18 -10 -40 0 -22 5 -40 10 -40 6 0 10 -22
10 -50 0 -27 5 -50 10 -50 6 0 10 -13 10 -30 0 -16 5 -30 10 -30 6 0 10 -9 10
-20 0 -11 5 -20 10 -20 6 0 10 -13 10 -30 0 -21 -5 -30 -16 -30 -9 0 -29 14
-44 30 -15 17 -33 30 -39 30 -16 0 -221 207 -221 223 0 7 -9 19 -20 27 -11 8
-20 22 -20 32 0 10 -4 18 -10 18 -5 0 -10 9 -10 20 0 11 -4 20 -10 20 -5 0
-10 9 -10 20 0 11 -4 20 -10 20 -5 0 -10 18 -10 40 0 22 -4 40 -10 40 -6 0
-10 53 -10 140 0 87 4 140 10 140 6 0 10 9 10 20 0 11 5 20 10 20 6 0 10 9 10
20 0 11 5 20 10 20 6 0 10 7 10 15 0 19 64 85 82 85 8 0 20 9 28 20 8 12 26
20 42 20 15 0 28 5 28 10 0 6 40 10 100 10 60 0 100 -4 100 -10z m3700 0 c0
-5 9 -10 20 -10 11 0 20 -4 20 -10 0 -5 9 -10 20 -10 11 0 20 -4 20 -10 0 -5
7 -10 15 -10 20 0 85 -65 85 -85 0 -8 5 -15 10 -15 6 0 10 -9 10 -20 0 -11 5
-20 10 -20 6 0 10 -9 10 -20 0 -11 5 -20 10 -20 6 0 10 -50 10 -130 0 -80 -4
-130 -10 -130 -5 0 -10 -18 -10 -40 0 -22 -4 -40 -10 -40 -5 0 -10 -13 -10
-30 0 -16 -4 -30 -10 -30 -5 0 -10 -9 -10 -20 0 -11 -4 -20 -10 -20 -5 0 -10
-8 -10 -18 0 -10 -9 -24 -20 -32 -11 -8 -20 -21 -20 -28 0 -7 -18 -31 -40 -52
-22 -21 -40 -43 -40 -50 0 -14 -46 -60 -60 -60 -7 0 -29 -18 -50 -40 -21 -22
-45 -40 -52 -40 -7 0 -20 -9 -28 -20 -8 -12 -26 -20 -42 -20 -33 0 -36 10 -8
30 12 8 20 26 20 42 0 15 5 28 10 28 6 0 10 9 10 20 0 11 5 20 10 20 6 0 10
27 10 60 0 33 4 60 10 60 6 0 10 18 10 40 0 22 -4 40 -10 40 -5 0 -10 23 -10
50 0 28 -4 50 -10 50 -5 0 -10 13 -10 28 0 16 -8 34 -20 42 -11 8 -20 22 -20
32 0 10 -4 18 -10 18 -5 0 -10 9 -10 20 0 11 7 20 15 20 9 0 31 16 50 35 32
32 35 39 35 95 0 51 -4 65 -25 85 -20 21 -34 25 -85 25 -51 0 -65 -4 -85 -25
-14 -13 -25 -31 -25 -40 0 -8 -4 -15 -10 -15 -5 0 -10 9 -10 20 0 11 -4 20
-10 20 -5 0 -10 18 -10 40 0 22 5 40 10 40 6 0 10 11 10 25 0 29 59 95 85 95
8 0 15 5 15 10 0 6 14 10 30 10 17 0 30 5 30 10 0 6 40 10 100 10 60 0 100 -4
100 -10z m-2920 -50 c0 -11 5 -20 10 -20 6 0 10 -9 10 -20 0 -11 5 -20 10 -20
6 0 10 -13 10 -29 0 -16 6 -32 13 -35 10 -5 10 -7 0 -12 -7 -3 -13 -14 -13
-25 0 -11 -7 -19 -16 -19 -19 0 -44 24 -44 42 0 8 -9 20 -20 28 -11 8 -20 22
-20 31 0 10 -6 19 -12 22 -9 3 -6 11 10 24 12 11 22 28 22 37 0 9 8 16 20 16
13 0 20 -7 20 -20z m-500 -470 c0 -6 37 -10 90 -10 53 0 90 -4 90 -10 0 -5 7
-10 16 -10 20 0 44 -24 44 -44 0 -9 5 -16 10 -16 6 0 10 -22 10 -50 0 -27 -4
-50 -10 -50 -5 0 -10 -7 -10 -16 0 -8 -6 -22 -14 -30 -8 -8 -22 -14 -30 -14
-9 0 -16 -4 -16 -10 0 -5 -22 -10 -50 -10 -27 0 -50 5 -50 10 0 6 -7 10 -15
10 -25 0 -65 46 -65 75 0 14 -4 25 -10 25 -5 0 -10 -13 -10 -30 0 -16 5 -30
10 -30 6 0 10 -7 10 -15 0 -20 45 -65 65 -65 8 0 15 -4 15 -10 0 -5 18 -10 40
-10 22 0 40 5 40 10 0 6 11 10 25 10 29 0 95 59 95 85 0 8 5 15 10 15 6 0 10
18 10 40 0 22 5 40 10 40 6 0 10 -8 10 -18 0 -10 9 -24 20 -32 11 -8 20 -22
20 -32 0 -10 5 -18 10 -18 6 0 10 -8 10 -18 0 -10 9 -24 20 -32 11 -8 20 -21
20 -28 0 -8 14 -27 30 -42 17 -15 30 -33 30 -40 0 -6 28 -38 61 -71 34 -33 58
-63 54 -67 -4 -4 -10 -1 -12 6 -3 6 -13 12 -24 12 -10 0 -19 5 -19 10 0 6 -9
10 -20 10 -11 0 -20 5 -20 10 0 6 -9 10 -20 10 -11 0 -20 5 -20 10 0 6 -9 10
-20 10 -11 0 -20 5 -20 10 0 6 -13 10 -30 10 -16 0 -30 5 -30 10 0 6 -13 10
-30 10 -16 0 -30 5 -30 10 0 6 -57 10 -150 10 -93 0 -150 -4 -150 -10 0 -5
-18 -10 -40 -10 -22 0 -40 -4 -40 -10 0 -15 -49 -12 -66 4 -8 8 -14 26 -14 40
0 14 -4 26 -10 26 -6 0 -10 26 -10 59 0 38 -5 61 -12 65 -10 5 -10 7 0 12 6 3
12 23 12 45 0 21 5 39 10 39 6 0 10 7 10 15 0 9 16 31 35 50 26 27 43 35 70
35 19 0 35 5 35 10 0 6 5 10 10 10 6 0 10 -4 10 -10z m2960 0 c0 -5 16 -10 35
-10 29 0 44 -9 80 -45 40 -39 45 -50 45 -89 0 -26 5 -47 13 -50 10 -5 10 -7 0
-12 -8 -4 -13 -27 -13 -65 0 -33 -4 -59 -10 -59 -5 0 -10 -9 -10 -20 0 -11 -4
-20 -10 -20 -5 0 -10 -7 -10 -16 0 -22 -32 -53 -38 -36 -2 6 -17 12 -33 12
-16 0 -29 5 -29 10 0 6 -13 10 -30 10 -16 0 -30 5 -30 10 0 6 -60 10 -160 10
-100 0 -160 -4 -160 -10 0 -5 -13 -10 -30 -10 -16 0 -30 -4 -30 -10 0 -5 -9
-10 -20 -10 -11 0 -20 -4 -20 -10 0 -5 -9 -10 -20 -10 -11 0 -20 -4 -20 -10 0
-5 -9 -10 -20 -10 -11 0 -20 -4 -20 -10 0 -5 -9 -10 -20 -10 -11 0 -20 5 -20
10 0 6 5 10 10 10 6 0 10 7 10 16 0 9 14 29 30 44 17 15 30 34 30 42 0 7 9 20
20 28 11 8 20 21 20 30 0 9 9 22 20 30 11 8 20 22 20 32 0 10 5 18 10 18 6 0
10 8 10 18 0 10 9 24 20 32 11 8 20 20 20 28 0 13 23 42 34 42 3 0 6 -18 6
-40 0 -22 5 -40 10 -40 6 0 10 -9 10 -20 0 -11 5 -20 10 -20 6 0 10 -7 10 -16
0 -20 24 -44 44 -44 9 0 16 -4 16 -10 0 -5 9 -10 20 -10 11 0 20 -4 20 -10 0
-5 18 -10 40 -10 22 0 40 5 40 10 0 6 7 10 15 10 20 0 65 45 65 65 0 8 5 15
10 15 6 0 10 14 10 30 0 17 -4 30 -10 30 -5 0 -10 -11 -10 -25 0 -16 -13 -39
-35 -60 -31 -32 -40 -35 -90 -35 -30 0 -55 5 -55 10 0 6 -7 10 -16 10 -20 0
-44 24 -44 44 0 9 -4 16 -10 16 -5 0 -10 23 -10 50 0 28 5 50 10 50 6 0 10 7
10 16 0 20 24 44 44 44 9 0 16 5 16 10 0 6 37 10 90 10 53 0 90 4 90 10 0 6 5
10 10 10 6 0 10 -4 10 -10z m-2560 -500 c0 -5 14 -10 30 -10 17 0 30 -4 30
-10 0 -5 9 -10 20 -10 11 0 20 -4 20 -10 0 -5 9 -10 20 -10 11 0 20 -4 20 -10
0 -5 9 -10 20 -10 11 0 20 -4 20 -10 0 -5 9 -10 20 -10 11 0 20 -4 20 -10 0
-5 8 -10 18 -10 10 0 24 -9 32 -20 8 -11 22 -20 32 -20 10 0 18 -4 18 -10 0
-5 9 -10 20 -10 11 0 20 -4 20 -10 0 -6 -29 -10 -68 -10 -56 0 -70 3 -82 20
-8 11 -22 20 -32 20 -10 0 -18 5 -18 10 0 6 -9 10 -20 10 -11 0 -20 5 -20 10
0 6 -13 10 -30 10 -16 0 -30 5 -30 10 0 6 -18 10 -40 10 -22 0 -40 5 -40 10 0
6 -50 10 -130 10 -80 0 -130 -4 -130 -10 0 -16 -89 -12 -106 4 -21 21 -17 46
6 46 11 0 20 5 20 10 0 6 18 10 40 10 22 0 40 5 40 10 0 6 53 10 140 10 87 0
140 -4 140 -10z m2400 0 c0 -5 14 -10 30 -10 17 0 30 -4 30 -10 0 -5 12 -10
26 -10 14 0 32 -7 40 -15 14 -13 14 -17 0 -30 -16 -17 -86 -21 -86 -5 0 6 -50
10 -130 10 -80 0 -130 -4 -130 -10 0 -5 -13 -10 -30 -10 -16 0 -30 -4 -30 -10
0 -5 -13 -10 -30 -10 -16 0 -30 -4 -30 -10 0 -5 -9 -10 -20 -10 -11 0 -20 -4
-20 -10 0 -5 -9 -10 -20 -10 -11 0 -20 -4 -20 -10 0 -5 -9 -10 -20 -10 -11 0
-20 -4 -20 -10 0 -6 -37 -10 -90 -10 -49 0 -90 3 -90 6 0 11 29 34 44 34 9 0
16 5 16 10 0 6 9 10 20 10 11 0 20 5 20 10 0 6 9 10 20 10 11 0 20 5 20 10 0
6 8 10 18 10 10 0 24 9 32 20 8 11 22 20 32 20 10 0 18 5 18 10 0 6 14 10 30
10 17 0 30 5 30 10 0 6 14 10 30 10 17 0 30 5 30 10 0 6 53 10 140 10 87 0
140 -4 140 -10z m305 -365 c86 -86 93 -105 37 -105 -26 0 -42 -6 -52 -20 -8
-11 -22 -20 -32 -20 -10 0 -18 -4 -18 -10 0 -5 -9 -10 -20 -10 -12 0 -20 -7
-20 -16 0 -20 -24 -44 -44 -44 -9 0 -16 -4 -16 -10 0 -5 -7 -10 -16 -10 -9 0
-25 -9 -35 -21 l-18 -21 -28 28 c-17 17 -23 29 -15 32 7 2 12 12 12 23 0 10 5
19 10 19 6 0 10 9 10 20 0 11 5 20 10 20 6 0 10 9 10 20 0 12 7 20 16 20 19 0
44 24 44 42 0 8 9 20 20 28 11 8 20 22 20 31 0 10 6 20 13 22 9 4 9 8 -2 15
-12 8 -12 12 0 26 8 8 20 15 27 16 7 0 46 -34 87 -75z m-3125 25 c0 -16 5 -30
10 -30 6 0 10 -7 10 -16 0 -8 23 -37 50 -64 28 -27 50 -56 50 -64 0 -9 5 -16
10 -16 6 0 10 -9 10 -20 0 -11 5 -20 10 -20 15 0 12 -29 -4 -46 -17 -16 -66
-19 -66 -4 0 6 -8 10 -18 10 -10 0 -24 9 -32 20 -8 11 -22 20 -32 20 -10 0
-18 7 -18 16 0 20 -24 44 -44 44 -9 0 -16 5 -16 10 0 6 -9 10 -20 10 -11 0
-20 5 -20 10 0 6 -18 10 -40 10 -44 0 -50 8 -20 30 11 8 20 20 20 28 0 18 66
82 85 82 8 0 15 5 15 10 0 6 14 10 30 10 27 0 30 -3 30 -30z m120 0 c0 -5 21
-10 46 -10 47 0 74 -16 74 -44 0 -9 5 -16 10 -16 6 0 10 -33 10 -80 0 -72 -2
-80 -19 -80 -11 0 -21 -6 -23 -12 -6 -16 -38 14 -38 34 0 8 -9 20 -20 28 -11
8 -20 22 -20 32 0 10 -4 18 -10 18 -5 0 -10 18 -10 40 0 22 -4 40 -10 40 -5 0
-10 9 -10 20 0 11 -4 20 -10 20 -5 0 -10 5 -10 10 0 6 9 10 20 10 11 0 20 -4
20 -10z m2800 -10 c0 -11 -4 -20 -10 -20 -5 0 -10 -9 -10 -20 0 -11 -4 -20
-10 -20 -5 0 -10 -17 -10 -38 0 -26 -6 -42 -20 -52 -11 -8 -20 -22 -20 -32 0
-10 -4 -18 -10 -18 -5 0 -10 -9 -10 -20 0 -11 -4 -20 -10 -20 -5 0 -10 5 -10
10 0 6 -9 10 -20 10 -19 0 -20 7 -20 90 0 53 4 90 10 90 6 0 10 9 10 20 0 16
7 20 30 20 17 0 30 5 30 10 0 6 18 10 40 10 33 0 40 -3 40 -20z m-2540 -30 c0
-5 14 -10 30 -10 17 0 30 -4 30 -10 0 -5 -4 -10 -10 -10 -5 0 -10 -13 -10 -30
0 -16 -4 -30 -10 -30 -5 0 -10 -9 -10 -20 0 -11 -4 -20 -10 -20 -5 0 -10 -9
-10 -20 0 -11 -4 -20 -10 -20 -5 0 -10 -9 -10 -20 0 -11 -4 -20 -10 -20 -5 0
-10 5 -10 10 0 6 -13 10 -30 10 l-30 0 0 75 c0 65 3 79 23 100 22 24 77 34 77
15z m2320 -10 c0 -11 5 -20 10 -20 6 0 10 -33 10 -80 0 -72 -2 -80 -19 -80
-11 0 -21 -6 -23 -12 -6 -16 -38 14 -38 34 0 8 -9 20 -20 28 -11 8 -20 22 -20
32 0 10 -4 18 -10 18 -14 0 -12 68 3 85 7 8 31 14 60 15 40 0 47 -3 47 -20z
m-1994 -14 c8 -8 14 -22 14 -30 0 -9 5 -16 10 -16 6 0 10 -4 10 -10 0 -5 -18
-10 -40 -10 -22 0 -40 -4 -40 -10 0 -5 -8 -10 -18 -10 -10 0 -24 -9 -32 -20
-8 -11 -22 -20 -32 -20 -10 0 -18 -7 -18 -16 0 -20 -24 -44 -44 -44 -9 0 -16
-4 -16 -10 0 -5 -7 -10 -16 -10 -9 0 -25 -9 -35 -21 l-18 -21 -28 28 c-17 17
-23 29 -15 32 7 2 12 12 12 23 0 10 5 19 10 19 6 0 10 9 10 20 0 11 5 20 10
20 6 0 10 9 10 20 0 12 7 20 16 20 18 0 44 23 44 40 0 6 6 17 13 25 17 20 173
21 193 1z m1819 -41 c30 -30 55 -61 55 -70 0 -8 5 -15 10 -15 6 0 10 -9 10
-20 0 -11 5 -20 10 -20 15 0 12 -29 -4 -46 -17 -16 -66 -19 -66 -4 0 6 -8 10
-18 10 -10 0 -24 9 -32 20 -8 11 -22 20 -32 20 -10 0 -18 7 -18 16 0 20 -24
44 -44 44 -9 0 -16 5 -16 10 0 6 -9 10 -20 10 -11 0 -20 5 -20 10 0 6 -13 10
-30 10 -23 0 -30 4 -30 20 0 11 5 20 10 20 6 0 10 9 10 20 0 18 7 20 85 20
l85 0 55 -55z m-2695 -85 c21 -22 46 -40 54 -40 9 0 16 -4 16 -10 0 -5 18 -10
40 -10 22 0 40 -4 40 -10 0 -5 8 -10 18 -10 10 0 24 -9 32 -20 8 -11 20 -20
28 -20 16 0 42 -24 42 -40 0 -29 -30 -40 -104 -40 -44 0 -76 4 -76 10 0 6 -30
10 -70 10 -40 0 -70 -4 -70 -10 0 -5 -13 -10 -30 -10 -29 0 -30 1 -30 50 0 28
5 50 10 50 6 0 10 14 10 30 0 17 5 30 10 30 6 0 10 11 10 25 0 22 16 53 28 55
2 0 21 -18 42 -40z m936 26 c8 -8 14 -22 14 -30 0 -9 5 -16 10 -16 6 0 10 -13
10 -30 0 -16 5 -30 10 -30 6 0 10 -27 10 -60 0 -53 -2 -60 -20 -60 -11 0 -20
5 -20 10 0 6 -33 10 -80 10 -47 0 -80 -4 -80 -10 0 -6 -33 -10 -80 -10 -72 0
-80 2 -80 19 0 11 -6 21 -12 23 -17 6 14 38 36 38 9 0 16 5 16 10 0 6 8 10 18
10 10 0 24 9 32 20 10 14 26 20 52 20 21 0 38 5 38 10 0 6 9 10 20 10 11 0 20
5 20 10 0 6 9 10 20 10 11 0 20 7 20 15 0 14 19 44 28 45 2 0 10 -6 18 -14z
m1524 -26 c21 -22 46 -40 54 -40 9 0 16 -4 16 -10 0 -5 18 -10 40 -10 22 0 40
-4 40 -10 0 -5 9 -10 20 -10 11 0 20 -4 20 -10 0 -5 7 -10 15 -10 18 0 65 -44
65 -60 0 -29 -30 -40 -104 -40 -44 0 -76 4 -76 10 0 6 -30 10 -70 10 -40 0
-70 -4 -70 -10 0 -5 -13 -10 -30 -10 -28 0 -30 2 -30 40 0 22 5 40 10 40 6 0
10 18 10 40 0 22 5 40 10 40 6 0 10 9 10 20 0 11 5 20 10 20 6 0 10 9 10 20 0
28 6 25 50 -20z m936 26 c8 -8 14 -22 14 -30 0 -9 5 -16 10 -16 6 0 10 -13 10
-30 0 -16 5 -30 10 -30 6 0 10 -22 10 -50 0 -27 5 -50 10 -50 6 0 10 -4 10
-10 0 -5 -13 -10 -30 -10 -16 0 -30 5 -30 10 0 6 -30 10 -70 10 -40 0 -70 -4
-70 -10 0 -6 -37 -10 -90 -10 -82 0 -90 2 -90 19 0 11 -6 21 -12 23 -17 6 14
38 36 38 9 0 16 5 16 10 0 6 8 10 18 10 10 0 24 9 32 20 10 14 26 20 52 20 21
0 38 5 38 10 0 6 9 10 20 10 11 0 20 5 20 10 0 6 9 10 20 10 11 0 20 7 20 15
0 14 19 44 28 45 2 0 10 -6 18 -14z m-3446 -276 c0 -6 30 -10 70 -10 40 0 70
4 70 10 0 6 33 10 80 10 72 0 80 -2 80 -19 0 -11 6 -21 12 -23 16 -6 -14 -38
-34 -38 -8 0 -20 -9 -28 -20 -8 -11 -22 -20 -32 -20 -10 0 -18 -4 -18 -10 0
-5 -18 -10 -40 -10 -22 0 -40 -4 -40 -10 0 -5 -7 -10 -16 -10 -8 0 -33 -18
-55 -41 -35 -36 -41 -39 -54 -25 -8 8 -15 22 -15 30 0 9 -4 16 -10 16 -5 0
-10 14 -10 30 0 17 -4 30 -10 30 -6 0 -10 27 -10 60 l0 60 30 0 c17 0 30 -4
30 -10z m840 0 c0 -6 33 -10 80 -10 47 0 80 4 80 10 0 6 9 10 20 10 18 0 20
-7 20 -60 0 -33 -4 -60 -10 -60 -5 0 -10 -18 -10 -40 0 -22 -4 -40 -10 -40 -5
0 -10 -9 -10 -20 0 -12 -7 -20 -16 -20 -20 0 -44 24 -44 44 0 9 -8 16 -20 16
-11 0 -20 5 -20 10 0 6 -9 10 -20 10 -11 0 -20 5 -20 10 0 6 -17 10 -38 10
-26 0 -42 6 -52 20 -8 11 -22 20 -32 20 -10 0 -18 5 -18 10 0 6 -9 10 -20 10
-17 0 -20 7 -20 40 l0 40 80 0 c47 0 80 -4 80 -10z m1620 0 c0 -6 30 -10 70
-10 40 0 70 4 70 10 0 6 33 10 80 10 72 0 80 -2 80 -19 0 -11 5 -21 12 -23 16
-6 -35 -58 -57 -58 -8 0 -15 -4 -15 -10 0 -5 -9 -10 -20 -10 -11 0 -20 -4 -20
-10 0 -5 -18 -10 -40 -10 -22 0 -40 -4 -40 -10 0 -5 -7 -10 -16 -10 -8 0 -33
-18 -55 -41 -35 -36 -41 -39 -54 -25 -8 8 -15 22 -15 30 0 9 -4 16 -10 16 -5
0 -10 18 -10 40 0 22 -4 40 -10 40 -5 0 -10 23 -10 50 0 49 1 50 30 50 17 0
30 -4 30 -10z m840 0 c0 -6 33 -10 80 -10 47 0 80 4 80 10 0 6 14 10 30 10 17
0 30 -4 30 -10 0 -5 -4 -10 -10 -10 -6 0 -10 -27 -10 -60 0 -33 -4 -60 -10
-60 -5 0 -10 -13 -10 -30 0 -16 -4 -30 -10 -30 -5 0 -10 -9 -10 -20 0 -12 -7
-20 -16 -20 -20 0 -44 24 -44 44 0 9 -8 16 -20 16 -11 0 -20 5 -20 10 0 6 -9
10 -20 10 -11 0 -20 5 -20 10 0 6 -17 10 -38 10 -26 0 -42 6 -52 20 -8 11 -22
20 -32 20 -10 0 -18 5 -18 10 0 6 -9 10 -20 10 -17 0 -20 7 -20 40 l0 40 80 0
c47 0 80 -4 80 -10z m-2942 -117 c17 -17 22 -28 14 -31 -7 -2 -12 -11 -12 -21
0 -9 -9 -23 -20 -31 -11 -8 -20 -20 -20 -28 0 -18 -25 -42 -44 -42 -9 0 -16
-8 -16 -20 0 -11 -4 -20 -10 -20 -5 0 -10 -9 -10 -20 0 -11 -4 -20 -10 -20 -5
0 -10 -16 -10 -36 0 -19 -7 -42 -15 -51 -14 -14 -18 -13 -34 6 -10 12 -24 21
-30 21 -16 0 -81 66 -81 82 0 8 -9 20 -20 28 -11 8 -20 22 -20 32 0 14 8 18
40 18 22 0 40 5 40 10 0 6 9 10 20 10 11 0 20 5 20 10 0 6 7 10 16 10 8 0 22
6 30 14 8 8 14 22 14 30 0 9 8 16 18 16 10 0 24 9 32 20 8 11 22 20 32 20 10
0 18 5 18 10 0 19 31 10 58 -17z m322 17 c0 -5 9 -10 20 -10 11 0 20 -4 20
-10 0 -5 7 -10 16 -10 20 0 44 -24 44 -44 0 -9 8 -16 18 -16 10 0 24 -9 32
-20 8 -11 22 -20 32 -20 10 0 18 -4 18 -10 0 -5 18 -10 40 -10 33 0 40 -3 40
-20 0 -11 -4 -20 -10 -20 -5 0 -10 -7 -10 -15 0 -20 -105 -125 -125 -125 -8 0
-15 -4 -15 -10 0 -5 -4 -10 -10 -10 -5 0 -10 9 -10 20 0 11 -4 20 -10 20 -5 0
-10 17 -10 38 0 26 -6 42 -20 52 -11 8 -20 20 -20 28 0 18 -25 42 -44 42 -9 0
-16 8 -16 20 0 11 -4 20 -10 20 -5 0 -10 7 -10 16 0 9 -9 25 -21 35 l-21 18
24 25 c23 25 58 35 58 16z m2138 -17 c17 -17 22 -28 14 -31 -7 -2 -12 -12 -12
-23 0 -10 -4 -19 -10 -19 -5 0 -10 -7 -10 -16 0 -8 -22 -37 -50 -64 -27 -27
-50 -56 -50 -64 0 -9 -4 -16 -10 -16 -5 0 -10 -16 -10 -36 0 -19 -7 -42 -15
-51 -14 -14 -18 -13 -34 6 -10 12 -24 21 -30 21 -15 0 -61 46 -61 61 0 6 -13
24 -30 39 -43 40 -40 60 10 60 22 0 40 5 40 10 0 6 9 10 20 10 11 0 20 5 20
10 0 6 7 10 16 10 20 0 44 24 44 44 0 9 8 16 18 16 10 0 24 9 32 20 8 11 22
20 32 20 10 0 18 5 18 10 0 19 31 10 58 -17z m322 17 c0 -5 9 -10 20 -10 11 0
20 -4 20 -10 0 -5 7 -10 16 -10 8 0 33 -18 54 -40 21 -22 45 -40 52 -40 7 0
20 -9 28 -20 10 -14 26 -20 52 -20 31 0 38 -4 38 -20 0 -11 -4 -20 -10 -20 -5
0 -10 -7 -10 -15 0 -20 -105 -125 -125 -125 -8 0 -15 -4 -15 -10 0 -5 -4 -10
-10 -10 -5 0 -10 9 -10 19 0 11 -6 22 -12 24 -10 4 -9 8 2 17 11 9 12 13 3 17
-7 2 -13 12 -13 22 0 9 -9 23 -20 31 -11 8 -20 20 -20 28 0 18 -25 42 -44 42
-9 0 -16 8 -16 20 0 11 -4 20 -10 20 -5 0 -10 9 -10 20 0 11 -4 20 -10 20 -14
0 -12 48 3 65 14 16 47 20 47 5z m-2700 -60 c0 -5 9 -10 20 -10 18 0 20 -7 20
-70 0 -40 -4 -70 -10 -70 -6 0 -10 -37 -10 -90 0 -53 4 -90 10 -90 6 0 10 -9
10 -20 0 -18 -7 -20 -60 -20 -33 0 -60 4 -60 10 0 6 -13 10 -30 10 -16 0 -30
5 -30 10 0 6 -7 10 -16 10 -18 0 -44 23 -44 40 0 6 18 29 40 50 22 21 40 46
40 54 0 9 5 16 10 16 6 0 10 18 10 40 0 22 5 40 10 40 6 0 10 8 10 18 0 10 9
24 20 32 11 8 20 22 20 32 0 11 7 18 20 18 11 0 20 -4 20 -10z m146 -4 c8 -8
14 -21 14 -28 0 -8 9 -20 20 -28 14 -10 20 -26 20 -52 0 -21 5 -38 10 -38 6 0
10 -9 10 -20 0 -11 5 -20 10 -20 6 0 10 -7 10 -16 0 -8 18 -33 41 -55 36 -35
39 -41 25 -54 -8 -8 -26 -15 -40 -15 -14 0 -26 -4 -26 -10 0 -5 -13 -10 -30
-10 -16 0 -30 -4 -30 -10 0 -6 -27 -10 -60 -10 -53 0 -60 2 -60 20 0 11 5 20
10 20 6 0 10 9 10 20 0 11 5 20 10 20 6 0 10 26 10 58 0 46 -4 60 -20 72 -17
12 -20 26 -20 82 0 61 2 68 20 68 11 0 20 5 20 10 0 15 29 12 46 -4z m2314 4
c0 -5 9 -10 20 -10 18 0 20 -7 20 -80 0 -47 -4 -80 -10 -80 -6 0 -10 -30 -10
-70 0 -40 4 -70 10 -70 6 0 10 -13 10 -30 l0 -30 -60 0 c-33 0 -60 4 -60 10 0
6 -13 10 -30 10 -16 0 -30 5 -30 10 0 6 -7 10 -16 10 -18 0 -44 23 -44 40 0
17 26 40 44 40 9 0 16 8 16 20 0 11 5 20 10 20 6 0 10 9 10 20 0 11 5 20 10
20 6 0 10 17 10 38 0 26 6 42 20 52 11 8 20 22 20 32 0 10 5 18 10 18 6 0 10
9 10 20 0 13 7 20 20 20 11 0 20 -4 20 -10z m146 -4 c8 -8 14 -21 14 -28 0 -8
9 -20 20 -28 14 -10 20 -26 20 -52 0 -21 5 -38 10 -38 6 0 10 -9 10 -20 0 -11
5 -20 10 -20 6 0 10 -7 10 -16 0 -8 18 -33 41 -55 36 -35 39 -41 25 -54 -8 -8
-22 -15 -30 -15 -9 0 -16 -4 -16 -10 0 -5 -18 -10 -40 -10 -22 0 -40 -4 -40
-10 0 -5 -22 -10 -50 -10 -49 0 -50 1 -50 30 0 17 5 30 10 30 6 0 10 30 10 70
0 40 -4 70 -10 70 -6 0 -10 33 -10 80 0 73 2 80 20 80 11 0 20 5 20 10 0 14 9
12 26 -4z"/>
</g>
</svg>
