<svg width="84" height="58" viewBox="0 0 84 58" fill="none" xmlns="http://www.w3.org/2000/svg">
<path d="M9 0C4.0664 0 0 4.0664 0 9V49C0 53.9336 4.0664 58 9 58H75C79.9336 58 84 53.9336 84 49V9C84 4.0664 79.9336 0 75 0H9ZM9.65625 6H74.3753L43.8442 33.25C42.6801 34.2891 41.3872 34.2891 40.2192 33.25L9.65625 6ZM6.00005 10.7812L26.562 29.1252L6.00005 48.8752V10.7812ZM78.0001 10.7812V48.8432L57.5001 29.0932L78.0001 10.7812ZM53 33.1252L72.594 52.0002H11.406L31.062 33.1562L36.2183 37.75C39.4956 40.6719 44.566 40.6758 47.8433 37.75L53 33.1252Z" fill="black"/>
</svg>
