<svg width="38" height="78" viewBox="0 0 38 78" fill="none" xmlns="http://www.w3.org/2000/svg">
<path d="M18.9999 0C29.1989 0 37.4999 8.3008 37.4999 18.5C37.4999 28.3984 29.6991 36.5 19.9999 37V77C19.9999 77.5 19.4999 78 18.9999 78C18.4999 78 17.9999 77.5 17.9999 77V37C8.19914 36.5 0.499946 28.3984 0.499946 18.5C0.398386 8.301 8.69914 0 18.9999 0ZM8.10195 19.5C8.70351 19.5 9.10195 19.1016 9.10195 18.5C9.10195 13.1016 13.5003 8.6016 19.0003 8.6016C19.6019 8.6016 20.0003 8.20316 20.0003 7.6016C20.0003 7.00004 19.6019 6.6016 19.0003 6.6016C12.5003 6.6016 7.10235 11.9024 7.10235 18.4996C7.10235 19.1012 7.50039 19.5 8.10195 19.5Z" fill="black"/>
</svg>
