<svg width="2500" height="2500" viewBox="0 0 2500 2500" fill="none" xmlns="http://www.w3.org/2000/svg">
<path d="M2463.19 1246.53C2463.19 1918.75 1918.06 2463.89 1245.83 2463.89C573.611 2463.89 28.4722 1918.75 28.4722 1246.53C28.4722 574.306 573.611 29.1666 1245.83 29.1666C1918.06 29.1666 2463.19 574.306 2463.19 1246.53V1246.53Z" fill="#DDA193"/>
<path d="M1143.75 436.806C800.694 473.611 459.028 737.5 445.139 1115.28C436.111 1345.83 532.639 1518.75 763.194 1567.36C789.583 1458.33 794.444 1399.31 794.444 1399.31C794.444 1399.31 693.056 1302.08 682.639 1240.28C597.917 743.056 1284.72 403.472 1645.14 750.694C1893.75 991.667 1729.86 1732.64 1328.47 1655.56C943.75 1581.94 1516.67 992.361 1209.72 876.389C960.417 781.944 827.778 1164.58 945.833 1354.17C876.389 1680.56 727.083 1988.19 787.5 2397.22C984.028 2261.81 1050 2002.08 1104.17 1731.25C1202.78 1788.19 1255.56 1847.92 1381.25 1856.94C1845.14 1890.97 2104.17 1415.97 2040.97 977.083C1984.03 588.194 1577.08 390.278 1143.75 436.806V436.806Z" fill="white"/>
</svg>
