<svg width="2500" height="2500" viewBox="0 0 2500 2500" fill="none" xmlns="http://www.w3.org/2000/svg">
<path fill-rule="evenodd" clip-rule="evenodd" d="M2499.99 2362.02C2499.99 2438.22 2438.22 2500 2362.02 2500V2499.99L1724.96 2499.99V1531.87H2049.92L2098.57 1154.56H1724.95V913.674C1724.95 804.436 1755.28 729.997 1911.93 729.997L2111.72 729.903V392.448C2077.17 387.859 1958.56 377.583 1820.59 377.583C1532.53 377.583 1335.32 553.411 1335.32 876.318V1154.56H1009.53V1531.87H1335.32V2499.99L137.985 2499.99C61.7663 2499.99 0.00976562 2438.22 0.00976562 2362.02V137.976C0.00976562 61.7659 61.7663 0 137.985 0H2362.02C2438.21 0 2499.99 61.7565 2499.99 137.976V2362.02Z" fill="#D5A396"/>
</svg>
