<svg width="94" height="94" viewBox="0 0 94 94" fill="none" xmlns="http://www.w3.org/2000/svg">
<path fill-rule="evenodd" clip-rule="evenodd" d="M12.6169 0.304688H81.6869C88.2924 0.304688 93.9989 5.71089 93.9989 12.6167V81.6867C93.9989 88.2922 88.2919 93.9987 81.6869 93.9987H12.6169C5.71073 93.9987 0.304932 88.2917 0.304932 81.6867V12.6167C0.304932 5.71049 5.71113 0.304688 12.6169 0.304688ZM26.4289 14.7187L33.9367 21.9257C36.6398 24.6288 36.6398 28.8319 34.2375 31.5351L28.8313 36.6406C35.136 45.6484 48.3513 59.1636 57.3583 65.1676L62.7645 60.0621C65.1668 57.359 69.37 57.6598 72.0731 60.3629L79.5809 67.5699C82.284 70.273 82.284 74.4761 79.8817 77.1793C57.9597 98.8003 -4.80231 36.0383 17.1197 14.4173C19.522 11.7142 23.7258 12.0156 26.4289 14.7187Z" fill="black"/>
</svg>
