<svg width="562" height="506" viewBox="0 0 562 506" fill="none" xmlns="http://www.w3.org/2000/svg">
<path d="M275.3 1.49999C273.8 3.19999 273.6 12 275 12C275.6 12 276 13.8 276 16C276 18.2 275.6 20 275 20C274.5 20 274 22.2 274 25C274 27.7 273.6 30 273 30C272.5 30 272 31.8 272 34C272 36.2 271.6 38 271 38C270.5 38 270 40.2 270 43C270 45.7 269.6 48 269 48C268.5 48 268 49.6 268 51.6C268 53.5 267.3 55.8 266.5 56.6C265.2 57.9 264 57.1 256.1 49.1C251.1 44.1 246.6 40 246 40C244.1 40 240 35.2 240 33C240 29.8 235.6 26 232 26C227.9 26 224 29.9 224 34C224 37.6 227.8 42 231 42C233.9 42 236 44.3 236 47.4C236 48.8 236.5 50 237 50C237.6 50 238 50.9 238 52C238 53.1 238.5 54 239 54C239.6 54 240 56.2 240 59C240 61.7 240.5 64 241 64C241.6 64 242 64.4 242 65C242 65.6 239.3 66 236 66C232.7 66 230 66.4 230 67C230 67.5 229.1 68 228 68C226.9 68 226 68.4 226 69C226 69.5 225.1 70 224 70C222.9 70 222 70.4 222 71C222 71.5 221.3 72 220.5 72C218.5 72 210 80.5 210 82.5C210 83.3 209.6 84 209 84C208.5 84 208 85.3 208 87C208 88.6 207.6 90 207 90C206.5 90 206 90.9 206 92C206 93.1 206.5 94 207 94C208.6 94 208.2 104.9 206.6 106.6C204.3 108.8 200 108.4 200 106C200 104.9 199.6 104 199 104C198.5 104 198 103.3 198 102.4C198 100.4 195.6 98 193.6 98C192.7 98 192 97.5 192 97C192 96.4 191.1 96 190 96C188.9 96 188 95.5 188 95C188 94.4 185.8 94 183 94C180.3 94 178 94.4 178 95C178 95.5 177.1 96 176 96C174.9 96 174 96.4 174 97C174 97.5 173.2 98 172.2 98C171.2 98 169.8 98.9 169 100C168.2 101.1 166.8 102 165.8 102C164.8 102 164 102.4 164 103C164 103.5 162.7 104 161 104C159.4 104 158 104.4 158 105C158 105.6 155.3 106 152 106C148.7 106 146 106.4 146 107C146 107.5 145.1 108 144 108C142.9 108 142 108.4 142 109C142 109.5 141.3 110 140.5 110C138.5 110 130 118.5 130 120.5C130 121.3 129.6 122 129 122C128.5 122 128 123.8 128 126C128 128.2 127.6 130 127 130C126.5 130 126 130.9 126 132C126 133.1 126.5 134 127 134C127.6 134 128 135.3 128 137C128 138.6 128.5 140 129 140C129.6 140 130 140.9 130 142C130 143.1 130.5 144 131 144C131.6 144 132 144.9 132 145.9C132 147 132.6 148 133.3 148.3C133.9 148.5 134.2 149.1 133.8 149.5C133.4 149.9 131.7 148.9 130.1 147.1C128.5 145.4 126.7 144 126.1 144C125.4 144 121.4 140.4 117 136C112.6 131.6 108.5 128 107.8 128C107 128 105.8 127.1 105 126C104.2 124.8 102.4 124 100.8 124C99.3 124 98 123.5 98 123C98 122.4 94 122 88 122C82 122 78 122.4 78 123C78 123.5 77.1 124 76 124C74.9 124 74 124.4 74 125C74 125.5 73.3 126 72.5 126C70.5 126 66 130.5 66 132.5C66 133.3 65.6 134 65 134C64.4 134 64 137.3 64 141.8C64 148.4 64.3 149.8 66 151C67.1 151.8 68 153.2 68 154.2C68 155.2 68.7 156 69.5 156C72 156 76 160.6 76 163.5C76 164.9 75.6 166 75 166C74.5 166 74 168.1 74 170.6C74 175.2 72.4 178 69.8 178C69 178 67.8 178.9 67 180C66.2 181.1 64.8 182 63.8 182C62.8 182 62 182.4 62 183C62 183.5 61.3 184 60.4 184C58.5 184 56 186.4 56 188.2C56 189 56.9 190.2 58 191C59.7 192.2 60 193.6 60 199.2C60 203.1 60.4 206 61 206C61.6 206 62 209.7 62 215C62 220.3 62.4 224 63 224C63.6 224 64 225.3 64 227C64 229.8 64.2 230 68 230C71 230 72 230.4 72 231.6C72 234.3 74.7 236 79 236C83.3 236 86 234.3 86 231.6C86 230.4 87 230 90 230C93.3 230 94 229.7 94 228C94 226.9 94.5 226 95 226C95.6 226 96 222.7 96 218C96 213.3 96.4 210 97 210C97.6 210 98 206.4 98 201.2C98 193.6 98.3 192.3 100 191C101.1 190.2 102 189 102 188.2C102 186.5 99.5 184 97.8 184C97 184 95.8 183.1 95 182C94.2 180.9 92.8 180 91.8 180C90.8 180 90 179.5 90 179C90 178.4 89.3 178 88.4 178C85.6 178 84 175.3 84 170.6C84 168.1 83.6 166 83 166C82.5 166 82 164.6 82 163C82 160.5 82.4 160 84.5 160C86.1 160 88.4 158.7 90.5 156.5C93.4 153.7 94 152.3 94 149C94 143.5 88.8 138 83.6 138C81.7 138 80 138.6 79.7 139.2C79.5 139.9 78.9 140.2 78.5 139.8C77.3 138.6 80.7 136 83.4 136C84.8 136 86 135.5 86 135C86 134.4 87.4 134 89 134C90.7 134 92 134.4 92 135C92 135.5 93.3 136 94.8 136C96.4 136 98.2 136.8 99 138C99.8 139.1 101 140 101.8 140C103.3 140 110 146.5 110 148C110 148.6 112.7 151.8 116 155C119.3 158.2 122 161.4 122 162C122 162.6 120.2 164.9 118 167C115.8 169.1 114 171.5 114 172.2C114 172.9 113.1 174.2 112 175C110.4 176.2 110 177.6 110 182.8C110 188.6 110.2 189.3 113.5 192.5C115.4 194.4 117.6 196 118.5 196C119.3 196 120 196.4 120 197C120 197.5 120.9 198 122 198C123.1 198 124 198.4 124 199C124 199.5 125.1 200 126.5 200C127.9 200 130.2 201.1 131.5 202.5C133.8 204.8 134 205.6 134 215.5C134 221.8 134.4 226 135 226C135.6 226 136 229 136 233C136 237 136.4 240 137 240C137.6 240 138 242.2 138 245C138 247.7 138.5 250 139 250C139.6 250 140 252.2 140 255C140 257.7 140.5 260 141 260C141.6 260 142 261.8 142 264C142 266.2 142.5 268 143 268C143.6 268 144 269.3 144 271C144 272.6 144.5 274 145 274C145.6 274 146 275.3 146 277C146 278.6 146.5 280 147 280C147.6 280 148 281.3 148 283C148 284.6 148.5 286 149 286C149.6 286 150 287.3 150 289C150 290.6 150.5 292 151 292C151.6 292 152 292.9 152 294C152 295.1 152.5 296 153 296C153.6 296 154 296.9 154 298C154 299.1 153.6 300 153.2 300C152.8 300 151.8 299.1 151 298C150.2 296.8 148.4 296 146.8 296C145.3 296 144 295.5 144 295C144 294.4 142.2 294 140 294C136.2 294 136 293.8 136 291C136 289.3 136.5 288 137 288C137.6 288 138 286.6 138 285C138 283.3 138.5 282 139 282C139.6 282 140 279.3 140 276C140 272.7 139.6 270 139 270C138.5 270 138 268.6 138 267C138 265.3 137.6 264 137 264C136.5 264 136 263.1 136 262C136 260.9 135.6 260 135 260C134.5 260 134 259.3 134 258.5C134 256.5 123.5 246 121.5 246C120.7 246 120 245.5 120 245C120 244.4 119.1 244 118 244C116.9 244 116 243.5 116 243C116 242.4 114.7 242 113 242C111.4 242 110 241.5 110 241C110 240.4 104.7 240 96 240C87.3 240 82 240.4 82 241C82 241.5 80.7 242 79 242C77.4 242 76 242.4 76 243C76 243.5 75.1 244 74 244C72.9 244 72 244.4 72 245C72 245.5 71.2 246 70.2 246C69.2 246 67.8 246.9 67 248C66.2 249.1 65 250 64.2 250C63.5 250 61.4 251.6 59.5 253.5C57.6 255.4 56 257.5 56 258.2C56 259 55.1 260.2 54 261C52.9 261.8 52 263.2 52 264.2C52 265.2 51.6 266 51 266C50.5 266 50 266.9 50 268C50 269.1 49.6 270 49 270C48.5 270 48 271.3 48 273C48 274.6 47.6 276 47 276C46.4 276 46 279.3 46 283.9C46 289.3 45.6 292 44.8 292.4C43.8 292.9 43.8 293.1 44.8 293.6C47 294.6 46 296 43 296C41.4 296 40 295.5 40 295C40 294.4 38.2 294 36 294C33.8 294 32 293.5 32 293C32 292.4 29.3 292 26 292C22.7 292 20 292.4 20 293C20 293.5 18.7 294 17 294C15.4 294 14 294.4 14 295C14 295.5 13.3 296 12.5 296C9.9 296 2 304.6 2 307.5C2 308.9 1.6 310 1 310C0.5 310 0 312.2 0 315C0 317.7 0.5 320 1 320C1.6 320 2 321.3 2 322.8C2 324.4 2.8 326.2 4 327C5.1 327.8 6 329 6 329.8C6 331.6 8.5 334 10.4 334C11.3 334 12 334.4 12 335C12 335.5 13.4 336 15 336C16.7 336 18 336.4 18 337C18 337.5 19.4 338 21 338C22.7 338 24 337.5 24 337C24 336.4 24.7 336 25.5 336C26.4 336 28.6 334.4 30.5 332.5C33.7 329.4 34 328.5 34 323.5C34 320.5 33.6 318 33 318C32.5 318 32 317.1 32 316C32 314.7 31.3 314 30 314C28.9 314 28 313.5 28 313C28 312.4 25.8 312 23 312C20.3 312 18 311.5 18 311C18 310.4 19.4 310 21 310C22.7 310 24 309.5 24 309C24 308.4 25.4 308 27 308C28.7 308 30 308.4 30 309C30 309.5 31.4 310 33 310C34.7 310 36 310.4 36 311C36 311.5 36.7 312 37.5 312C39.4 312 48 320.4 48 322.3C48 323 48.9 324.2 50 325C51.1 325.8 52 327.1 52 328C52 328.9 52.9 330.2 54 331C55.1 331.8 56 333.2 56 334.2C56 335.2 56.5 336 57 336C57.6 336 58 336.8 58 337.8C58 338.8 58.9 340.2 60 341C61.1 341.8 62 343 62 343.7C62 345.3 82.5 366 84.1 366C84.7 366 86.5 367.3 88 369C89.5 370.6 91.5 372 92.4 372C93.3 372 94 372.4 94 373C94 373.5 94.8 374 95.8 374C96.8 374 98.2 374.9 99 376C99.8 377.1 101.2 378 102.2 378C103.2 378 104 378.4 104 379C104 379.5 104.9 380 106 380C107.1 380 108 380.4 108 381C108 381.5 108.9 382 110 382C113.4 382 112.3 384.9 107 390C104.3 392.7 102 395.5 102 396.2C102 397 101.1 398.2 100 399C98.9 399.8 98 401.2 98 402.2C98 403.2 97.6 404 97 404C96.5 404 96 405.3 96 407C96 408.6 95.6 410 95 410C94.5 410 94 410.9 94 412C94 413.1 93.6 414 93 414C92.5 414 92 416.2 92 419C92 421.7 91.6 424 91 424C90.4 424 90 428.3 90 435C90 441.7 90.4 446 91 446C91.6 446 92 447.8 92 450C92 452.2 92.5 454 93 454C93.6 454 94 455.3 94 457C94 458.6 94.5 460 95 460C95.6 460 96 460.9 96 462C96 463.1 96.5 464 97 464C97.6 464 98 464.9 98 466C98 467.1 98.5 468 99 468C99.6 468 100 468.9 100 470C100 471.1 100.5 472 101 472C101.6 472 102 472.7 102 473.5C102 475.4 116.4 490 118.3 490C119 490 120.2 490.9 121 492C121.8 493.1 123.2 494 124.2 494C125.2 494 126 494.4 126 495C126 495.5 126.9 496 128 496C129.1 496 130 496.4 130 497C130 497.5 130.9 498 132 498C133.1 498 134 498.4 134 499C134 499.5 135.4 500 137 500C138.7 500 140 500.4 140 501C140 501.5 141.8 502 144 502C146.2 502 148 502.4 148 503C148 503.6 152.7 504 160 504C167.3 504 172 503.6 172 503C172 502.4 173.4 502 175 502C176.7 502 178 501.5 178 501C178 500.4 179.4 500 181 500C182.7 500 184 499.5 184 499C184 498.4 184.9 498 186 498C187.1 498 188 497.5 188 497C188 496.4 188.9 496 190 496C191.1 496 192 495.5 192 495C192 494.4 192.9 494 194 494C195.1 494 196 493.5 196 493C196 492.4 196.7 492 197.5 492C199.4 492 216 475.6 216 473.7C216 473 216.9 471.8 218 471C219.1 470.2 220 468.8 220 467.8C220 466.8 220.5 466 221 466C221.6 466 222 465.1 222 464C222 462.9 222.5 462 223 462C223.6 462 224 460.6 224 459C224 457.3 224.5 456 225 456C225.6 456 226 454.2 226 452C226 449.8 226.5 448 227 448C227.6 448 228 443 228 435C228 427 227.6 422 227 422C226.5 422 226 420.2 226 418C226 415.8 225.6 414 225 414C224.5 414 224 412.6 224 411C224 409.3 223.6 408 223 408C222.5 408 222 407.1 222 406C222 404.9 221.6 404 221 404C220.5 404 220 403.3 220 402.4C220 401.5 219.1 399.9 217.9 398.9C216 397.3 215.9 396.9 217.3 395.5C218.3 394.6 220.6 394 223.4 394C225.9 394 228 393.5 228 393C228 392.4 229.8 392 232 392C234.2 392 236 391.5 236 391C236 390.4 237.4 390 239 390C240.7 390 242 389.5 242 389C242 388.4 244.3 388 247 388C249.8 388 252 388.4 252 389C252 389.6 261.7 390 279 390C296.3 390 306 389.6 306 389C306 388.4 309 388 313 388C317 388 320 388.4 320 389C320 389.5 321.4 390 323 390C324.7 390 326 390.4 326 391C326 391.5 327.8 392 330 392C332.2 392 334 392.4 334 393C334 393.5 336.3 394 339 394C341.8 394 344 394.4 344 395C344 395.5 344.9 396 346 396C347.1 396 348 396.4 348 397C348 397.5 347.6 398 347 398C346.5 398 346 398.9 346 400C346 401.1 345.6 402 345 402C344.5 402 344 402.9 344 404C344 405.1 343.6 406 343 406C342.5 406 342 406.9 342 408C342 409.1 341.6 410 341 410C340.5 410 340 411.3 340 413C340 414.6 339.6 416 339 416C338.5 416 338 418.2 338 421C338 423.7 337.6 426 337 426C336.4 426 336 429.7 336 435C336 440.3 336.4 444 337 444C337.6 444 338 446.2 338 449C338 451.7 338.5 454 339 454C339.6 454 340 455.3 340 457C340 458.6 340.5 460 341 460C341.6 460 342 460.9 342 462C342 463.1 342.5 464 343 464C343.6 464 344 464.9 344 466C344 467.1 344.5 468 345 468C345.6 468 346 468.8 346 469.8C346 470.8 346.9 472.2 348 473C349.1 473.8 350 475 350 475.7C350 477.3 360.5 488 362.1 488C362.7 488 364.5 489.3 366 491C367.5 492.6 369.5 494 370.4 494C371.3 494 372 494.4 372 495C372 495.5 372.9 496 374 496C375.1 496 376 496.4 376 497C376 497.5 376.9 498 378 498C379.1 498 380 498.4 380 499C380 499.5 381.4 500 383 500C384.7 500 386 500.4 386 501C386 501.5 386.9 502 388 502C389.1 502 390 502.4 390 503C390 503.5 391.8 504 394 504C396.2 504 398 504.4 398 505C398 505.6 400.7 506 404 506C407.3 506 410 505.6 410 505C410 504.4 412.3 504 415 504C417.8 504 420 503.5 420 503C420 502.4 421.4 502 423 502C424.7 502 426 501.5 426 501C426 500.4 426.9 500 428 500C429.1 500 430 499.5 430 499C430 498.4 431.4 498 433 498C434.7 498 436 497.5 436 497C436 496.4 436.8 496 437.8 496C438.8 496 440.2 495.1 441 494C441.8 492.9 443 492 443.7 492C445.6 492 464 473.4 464 471.5C464 470.7 464.5 470 465 470C465.6 470 466 469.1 466 468C466 466.9 466.5 466 467 466C467.6 466 468 465.1 468 464C468 462.9 468.5 462 469 462C469.6 462 470 461.1 470 460C470 458.9 470.5 458 471 458C471.6 458 472 456.2 472 454C472 451.8 472.5 450 473 450C473.6 450 474 444.3 474 435C474 425.7 473.6 420 473 420C472.5 420 472 418.6 472 417C472 415.3 471.6 414 471 414C470.5 414 470 412.6 470 411C470 409.3 469.6 408 469 408C468.5 408 468 407.1 468 406C468 404.9 467.6 404 467 404C466.5 404 466 403.1 466 402C466 400.9 465.6 400 465 400C464.5 400 464 399.3 464 398.4C464 397.6 461.3 394.2 458 391C454.7 387.8 452 384.6 452 384C452 382.3 454.6 380 456.4 380C457.3 380 458 379.5 458 379C458 378.4 458.8 378 459.8 378C460.8 378 462.2 377.1 463 376C463.8 374.9 465.1 374 466 374C466.9 374 468.2 373.1 469 372C469.8 370.9 471.1 370 471.8 370C472.6 370 474.5 368.6 476 367C477.5 365.3 479.3 364 479.9 364C481.4 364 496 349.4 496 347.9C496 347.3 497.4 345.5 499 344C500.7 342.5 502 340.6 502 339.8C502 339.1 502.9 337.8 504 337C505.1 336.2 506 334.8 506 333.8C506 332.8 506.7 332 507.6 332C510.1 332 512 329.4 512 326C512 323.6 513.2 321.8 517.5 317.5C520.5 314.5 523.6 312 524.5 312C525.3 312 526 311.5 526 311C526 310.4 527.4 310 529 310C530.7 310 532 309.5 532 309C532 308.4 535.2 308 539.5 308C546.8 308 547.2 308.1 550.5 311.5C553.7 314.7 554 315.4 554 321C554 326.6 553.7 327.3 550.5 330.5C547.4 333.7 546.5 334 541.5 334C538.5 334 536 333.5 536 333C536 332.4 535.1 332 534 332C532.7 332 532 331.3 532 330C532 328.9 531.6 328 531 328C530.5 328 530 327.1 530 326C530 324.9 529.6 324 529 324C528.5 324 528 325.3 528 327C528 328.6 528.5 330 529 330C529.6 330 530 330.7 530 331.5C530 333.5 534.5 338 536.5 338C537.3 338 538 338.4 538 339C538 339.5 539.8 340 542 340C544.2 340 546 339.5 546 339C546 338.4 547.4 338 549 338C552 338 553.1 336.5 550.8 335.7C550 335.5 551.2 333.7 553.8 331.2C556.1 329 558 326.4 558 325.6C558 324.7 558.5 324 559 324C559.6 324 560 322.6 560 321C560 319.3 560.5 318 561 318C561.6 318 562 316.2 562 314C562 311.8 561.6 310 561 310C560.5 310 560 309.1 560 308C560 306.9 559.6 306 559 306C558.5 306 558 305.3 558 304.5C558 302.5 551.5 296 549.5 296C548.7 296 548 295.5 548 295C548 294.4 546.2 294 544 294C541.8 294 540 293.5 540 293C540 292.4 537.8 292 535 292C532.3 292 530 292.4 530 293C530 293.5 528.2 294 526 294C523.8 294 522 294.4 522 295C522 295.5 520.7 296 519 296H516V287C516 281.7 515.6 278 515 278C514.5 278 514 276.2 514 274C514 271.8 513.6 270 513 270C512.5 270 512 269.1 512 268C512 266.9 511.6 266 511 266C510.5 266 510 265.2 510 264.2C510 263.2 509.1 261.8 508 261C506.9 260.2 506 259 506 258.2C506 256.6 501.5 252 499.9 252C499.3 252 497.5 250.6 496 249C494.5 247.3 492.5 246 491.6 246C490.7 246 490 245.5 490 245C490 244.4 488.7 244 487 244C485.4 244 484 243.5 484 243C484 242.4 482.7 242 481 242C479.4 242 478 241.5 478 241C478 240.4 473 240 465 240C457 240 452 240.4 452 241C452 241.5 450.7 242 449 242C447.4 242 446 242.4 446 243C446 243.5 445.1 244 444 244C442.9 244 442 244.4 442 245C442 245.5 441.3 246 440.5 246C438.5 246 426 258.5 426 260.5C426 261.3 425.6 262 425 262C424.5 262 424 263.3 424 265C424 266.6 423.6 268 423 268C422.4 268 422 271 422 275C422 279 422.4 282 423 282C423.6 282 424 283.3 424 285C424 286.6 424.5 288 425 288C425.6 288 426 289.3 426 291C426 293.8 425.8 294 422 294C419.8 294 418 294.4 418 295C418 295.5 417.1 296 416 296C414.9 296 414 296.4 414 297C414 297.5 413.1 298 412 298C410.9 298 410 298.4 410 299C410 299.5 409.1 300 408.1 300C407 300 406 300.6 405.7 301.2C405.5 302 404.9 302.1 404.4 301.6C403.9 301.1 404 300.5 404.8 300.3C405.4 300 406 299 406 297.9C406 296.9 406.5 296 407 296C407.6 296 408 294.6 408 293C408 291.3 408.5 290 409 290C409.6 290 410 289.1 410 288C410 286.9 410.5 286 411 286C411.6 286 412 284.6 412 283C412 281.3 412.5 280 413 280C413.6 280 414 278.6 414 277C414 275.3 414.5 274 415 274C415.6 274 416 272.6 416 271C416 269.3 416.5 268 417 268C417.6 268 418 266.2 418 264C418 261.8 418.5 260 419 260C419.6 260 420 258.6 420 257C420 255.3 420.5 254 421 254C421.6 254 422 251.7 422 249C422 246.2 422.5 244 423 244C423.6 244 424 242.2 424 240C424 237.8 424.5 236 425 236C425.6 236 426 233.3 426 230C426 226.7 426.4 224 427 224C427.6 224 428 220 428 214C428 204.7 428.1 204 430 204C431.1 204 432 203.5 432 203C432 202.4 432.9 202 434 202C435.1 202 436 201.5 436 201C436 200.4 437.4 200 439 200C440.7 200 442 199.5 442 199C442 198.4 443.4 198 445 198C446.7 198 448 197.5 448 197C448 196.4 448.9 196 450 196C451.1 196 452 195.5 452 195C452 194.4 452.7 194 453.6 194C455.6 194 458 191.6 458 189.6C458 188.7 458.5 188 459 188C459.6 188 460 185.7 460 183C460 180.2 459.6 178 459 178C458.5 178 458 177.1 458 176C458 174.9 457.6 174 457 174C456.5 174 456 173.3 456 172.5C456 170.5 449.5 164 447.5 164C446.6 164 446 163.1 446 161.5C446 159.6 448 157 453 152C456.9 148.2 460 144.6 460 144C460 142.5 462.5 140 464 140C464.7 140 466.5 138.6 468 137C469.7 135.2 471.8 134 473.4 134C474.8 134 476 133.5 476 133C476 132.4 477.4 132 479 132C480.7 132 482 132.4 482 133C482 133.5 483.2 134 484.6 134C487.3 134 490.7 136.6 489.5 137.8C489.1 138.2 488.5 137.9 488.3 137.2C488 136.6 486.3 136 484.4 136C480.7 136 476 139.6 476 142.5C476 143.3 475.6 144 475 144C474.5 144 474 145.3 474 147C474 148.6 474.5 150 475 150C475.6 150 476 150.7 476 151.5C476 154 480.6 158 483.5 158C485.6 158 486 158.5 486 161C486 162.6 485.6 164 485 164C484.5 164 484 166.1 484 168.6C484 173.2 482.4 176 479.8 176C479 176 477.8 176.9 477 178C476.2 179.1 474.9 180 474 180C473.1 180 471.8 180.9 471 182C470.2 183.1 468.8 184 467.8 184C466.8 184 466 184.4 466 185C466 185.5 466.5 186 467 186C467.6 186 468 186.9 468 188C468 189.1 468.5 190 469 190C469.6 190 470 192.7 470 196C470 199.3 470.4 202 471 202C471.6 202 472 205.7 472 211C472 216.3 472.4 220 473 220C473.6 220 474 221.8 474 224V228H478C481 228 482 228.4 482 229.6C482 232.3 484.7 234 489 234C492.4 234 493.8 233.4 496 231C497.5 229.3 499.8 228 501 228C505 228 506 225.8 506 216.6C506 211.5 506.4 208 507 208C507.6 208 508 204.7 508 200C508 195.3 508.4 192 509 192C509.6 192 510 191.1 510 190C510 188.9 510.5 188 511 188C512.5 188 512.2 185.1 510.6 183.4C509.8 182.6 508.5 182 507.8 182C507 182 505.8 181.1 505 180C504.2 178.9 502.9 178 502 178C501.1 178 499.8 177.1 499 176C498.2 174.9 496.8 174 495.8 174C494.3 174 494 173.1 494 168C494 164.7 493.6 162 493 162C492.5 162 492 161.3 492 160.4C492 158.6 494.3 156 496 156C497.6 156 502 151.3 502 149.5C502 148.7 502.5 148 503 148C503.6 148 504 146.6 504 145C504 143.3 504.5 142 505 142C505.6 142 506 140.6 506 139C506 137.3 505.6 136 505 136C504.5 136 504 134.9 504 133.5C504 130.6 496.1 122 493.5 122C492.7 122 492 121.5 492 121C492 120.4 487.7 120 481 120C474.3 120 470 120.4 470 121C470 121.5 469.1 122 468 122C466.9 122 466 122.4 466 123C466 123.5 465.1 124 464 124C462.9 124 462 124.4 462 125C462 125.5 461.3 126 460.5 126C459.6 126 455.4 129.6 451 134C446.6 138.4 442.8 142 442.5 142C442.2 142 442 137.9 442 133C442 127.7 441.6 124 441 124C440.5 124 440 123.1 440 122C440 120.9 439.6 120 439 120C438.5 120 438 119.3 438 118.5C438 116.6 433.6 112 431.8 112C431 112 429.8 111.1 429 110C428.2 108.9 426.8 108 425.8 108C424.8 108 424 107.5 424 107C424 106.4 421.3 106 418 106C414.7 106 412 105.6 412 105C412 104.4 410.7 104 409 104C407.4 104 406 103.5 406 103C406 102.4 405.1 102 404 102C402.9 102 402 101.5 402 101C402 100.4 401.2 100 400.2 100C399.2 100 397.8 99.1 397 98C396.2 96.8 394.4 96 392.8 96C391.3 96 390 95.5 390 95C390 94.4 388.2 94 386 94C383.8 94 382 94.4 382 95C382 95.5 381.1 96 380 96C378.9 96 378 96.4 378 97C378 97.5 377.3 98 376.5 98C374.7 98 370 102.4 370 104C370 106 367.2 108 364.6 108H362V96C362 88.7 361.6 84 361 84C360.5 84 360 83.3 360 82.5C360 80.6 353.6 74 351.8 74C351 74 349.8 73.1 349 72C348.2 70.9 346.8 70 345.8 70C344.8 70 344 69.5 344 69C344 68.4 342.7 68 341 68C339.4 68 338 67.5 338 67C338 66.4 335 66 331 66C327 66 324 66.4 324 67C324 67.5 323.1 68 322 68C320.2 68 320 67.3 320 62C320 58.7 320.4 56 321 56C321.6 56 322 54.2 322 52C322 49.8 322.5 48 323 48C323.6 48 324 46.6 324 45C324 42.2 324.3 42 327.5 42C331.3 42 336 38.4 336 35.6C336 34.8 336.6 33.9 337.3 33.6C338.3 33.1 338.3 32.9 337.3 32.4C336.6 32.1 336 31.2 336 30.3C336 27.7 333.2 26 329 26C324.7 26 322 27.7 322 30.4C322 31.3 321.6 32 321 32C320.5 32 320 33.2 320 34.6C320 37.2 318 40 316 40C315.4 40 311.3 43.6 306.9 48.1C299.9 55.2 298.8 55.9 297.5 54.6C296.7 53.8 296 51.5 296 49.6C296 47.6 295.6 46 295 46C294.5 46 294 44.2 294 42C294 39.8 293.6 38 293 38C292.5 38 292 36.2 292 34C292 31.8 291.6 30 291 30C290.5 30 290 28.2 290 26C290 23.8 289.6 22 289 22C288.4 22 288 19.3 288 16C288 12.7 288.4 9.99999 289 9.99999C289.6 9.99999 290 9.09999 290 7.99999C290 6.89999 289.6 5.99999 289 5.99999C288.5 5.99999 288 5.29999 288 4.39999C288 3.59999 287.4 2.19999 286.6 1.39999C284.7 -0.400008 276.9 -0.400008 275.3 1.49999ZM280 6.99999C280 9.29999 279.6 9.99999 278 9.99999C275.7 9.99999 275.3 7.69999 277.3 5.49999C279.2 3.29999 280 3.69999 280 6.99999ZM230.6 31.4C232.7 33.5 232.3 36 230 36C228.4 36 228 35.3 228 33C228 29.6 228.5 29.3 230.6 31.4ZM242 48C242 49.1 242.5 50 243 50C243.6 50 244 51.3 244 53C244 54.6 244.5 56 245 56C245.6 56 246 57.8 246 59.9C246 62.1 246.5 64 247.3 64.3C247.9 64.5 248.2 65.1 247.8 65.5C246.5 66.9 244 63.1 244 59.6C244 57.6 243.6 56 243 56C242.5 56 242 54.6 242 53C242 51.3 241.6 50 241 50C240.5 50 240 49.1 240 48C240 46.9 240.5 46 241 46C241.6 46 242 46.9 242 48ZM270 186.5C270 187.9 268.9 190.2 267.5 191.5C265.6 193.5 264.1 194 260 194C255.6 194 254.5 193.6 251.5 190.5C249.6 188.6 248 186.8 248 186.5C248 186.2 250.7 186 254 186C257.3 186 260 185.6 260 185C260 184.4 262.3 184 265 184C269.7 184 270 184.2 270 186.5ZM304 185C304 185.5 305.4 186 307 186C308.7 186 310 186.2 310 186.5C310 187.7 305 192 303.6 192C302.8 192 301.9 192.6 301.6 193.2C301.1 194.2 300.9 194.2 300.4 193.2C300.1 192.6 298.7 192 297.4 192C294.6 192 290 187.9 290 185.5C290 184.3 291.4 184 297 184C301 184 304 184.4 304 185ZM222 232V276H217.4C210.5 276 210 275.1 210 261V248.9L206.5 245.5C204.6 243.6 202.6 242 202 242C199.6 242 198 239 198 234.6V230H203C207.9 230 208 229.9 208 227C208 225.3 208.5 224 209 224C209.6 224 210 221.7 210 219C210 216.2 210.5 214 211 214C211.6 214 212 213.1 212 212C212 210.9 211.6 210 211 210C210.5 210 210 209.3 210 208.4C210 206.5 207.6 204 205.8 204C205 204 203.8 203.1 203 202C202.2 200.9 200.8 200 199.8 200C198.8 200 198 199.5 198 199C198 198.4 196.7 198 195 198C193.4 198 192 198.4 192 199C192 199.5 191.2 200 190.2 200C189.2 200 187.8 200.9 187 202C186.2 203.2 184.4 204 182.8 204C181.3 204 180 204.4 180 205C180 205.5 178.7 206 177 206C174.3 206 174 206.3 174 209C174 210.6 174.5 212 175 212C175.6 212 176 213.3 176 215C176 216.6 176.5 218 177 218C177.6 218 178 219.1 178 220.5C178 223.2 170.2 232 167.7 232C167 232 165.8 232.9 165 234C164.2 235.1 162.8 236 161.8 236C160.8 236 160 236.4 160 237C160 237.5 159.1 238 158 238C156.1 238 156 237.3 156 221.4C156 204.2 156.5 202 160.4 202C161.3 202 162 201.5 162 201C162 200.4 162.9 200 164 200C165.1 200 166 199.5 166 199C166 198.4 167.4 198 169 198C170.7 198 172 197.5 172 197C172 196.4 174.3 196 177 196C179.8 196 182 195.5 182 195C182 194.4 185 194 189 194C193 194 196 193.6 196 193C196 192.4 198.7 192 202 192C205.3 192 208 191.6 208 191C208 190.4 210.7 190 214 190C217.3 190 220 189.6 220 189C220 188.4 220.5 188 221 188C221.7 188 222 203.3 222 232ZM282.6 191.4C283.4 192.2 284 193.4 284 194C284 195.7 286.6 198 288.4 198C289.3 198 290 198.4 290 199C290 199.5 290.9 200 292 200C293.1 200 294 200.4 294 201C294 201.6 296.9 202 300.8 202C306.4 202 307.8 201.7 309 200C309.8 198.9 311.2 198 312.2 198C313.2 198 314 197.5 314 197C314 196.4 314.5 196 315 196C315.6 196 316 209.5 316 234.6C316 266.7 315.8 273.4 314.6 274.6C313.4 275.8 307.3 276 279 276C250.7 276 244.6 275.8 243.4 274.6C242.2 273.4 242 266.8 242 235.6C242 211.2 242.4 198 243 198C243.6 198 244 198.4 244 199C244 199.5 244.9 200 246 200C247.1 200 248 200.4 248 201C248 201.5 248.9 202 250 202C251.1 202 252 202.4 252 203C252 203.6 255.3 204 260 204C264.7 204 268 203.6 268 203C268 202.4 268.7 202 269.5 202C270.4 202 273.1 200 275.5 197.5C278 195.1 280 192.4 280 191.5C280 189.6 280.7 189.6 282.6 191.4ZM358 191C358 191.5 359.4 192 361 192C364.3 192 365 194.1 362.6 196.6C360.9 198.2 352 198.6 352 197C352 196.4 351.3 196 350.5 196C349 196 344 191.8 344 190.5C344 190.2 347.2 190 351 190C355 190 358 190.4 358 191ZM480 192C480 193.1 480.5 194 481 194C481.6 194 482 199.7 482 209V224H479H476V215C476 209.7 475.6 206 475 206C474.4 206 474 202.7 474 198V190H477C479.3 190 480 190.4 480 192ZM492.6 191.4C494.3 193.1 494.7 214 493 214C492.5 214 492 216.2 492 219C492 223.9 491.9 224 489 224H486V210C486 201.3 485.6 196 485 196C483.6 196 483.8 193.2 485.3 191.5C486.9 189.6 490.8 189.6 492.6 191.4ZM504 202C504 209.3 503.6 214 503 214C502.5 214 502 216.2 502 219C502 223.9 501.9 224 499 224H496V212C496 204.7 496.4 200 497 200C497.6 200 498 197.7 498 195C498 190.1 498.1 190 501 190H504V202ZM70.6 193.4C71.7 194.5 72 198.3 72 210.4V226H69H66V216C66 210 65.6 206 65 206C64.4 206 64 203 64 199C64 192.1 64.1 192 66.6 192C68 192 69.8 192.6 70.6 193.4ZM82.6 193.4C83.7 194.5 84 198.1 84 209C84 224.4 83.5 226 78.6 226H76V209V192H78.6C80 192 81.8 192.6 82.6 193.4ZM94 204C94 211.3 93.6 216 93 216C92.5 216 92 218.2 92 221C92 226.3 90.4 227.6 87.4 224.6C85.8 222.9 85.5 220 87 220C87.6 220 88 214.7 88 206V192H91H94V204ZM272 194.5C272 194.8 270.9 196.2 269.5 197.5C267.4 199.7 266.2 200 260.5 200C256.8 200 254 199.6 254 199C254 198.4 253.1 198 252 198C250.9 198 250 197.5 250 197C250 196.4 251.4 196 253 196C254.7 196 256 196.4 256 197C256 197.5 257.8 198 260 198C262.2 198 264 197.5 264 197C264 196.4 264.9 196 266 196C267.1 196 268 195.5 268 195C268 194.4 268.9 194 270 194C271.1 194 272 194.2 272 194.5ZM382 195C382 195.5 383.4 196 385 196C386.7 196 388 196.4 388 197C388 197.5 389.4 198 391 198C392.7 198 394 198.4 394 199C394 199.5 395.8 200 398 200C400.2 200 402 200.4 402 201C402 201.5 403.2 202 404.6 202C406 202 407.8 202.6 408.6 203.4C410.2 205.1 410.5 208 409 208C408.4 208 408 211 408 215C408 219 407.6 222 407 222C406.5 222 406 224.2 406 227C406 230.8 405.6 232 404.5 232C402.6 232 386 215.6 386 213.7C386 213 385.1 211.8 384 211C382.9 210.2 382 208.8 382 207.8C382 206.8 381.6 206 381 206C380.5 206 380 204.6 380 203C380 201.3 379.6 200 379 200C378.5 200 378 198.6 378 197C378 194.7 378.4 194 380 194C381.1 194 382 194.4 382 195ZM341 202C343.1 204.2 345.6 206 346.4 206C347.3 206 348 206.4 348 207C348 207.6 350.7 208 354 208C357.3 208 360 207.6 360 207C360 205.5 362.9 205.8 364.6 207.4C365.4 208.2 366 210.5 366 212.4C366 214.4 366.5 216 367 216C367.6 216 368 217.8 368 220C368 222.2 368.5 224 369 224C369.6 224 370 225.8 370 228C370 230.2 370.5 232 371 232C371.6 232 372 233.3 372 235C372 236.6 372.5 238 373 238C373.6 238 374 239.3 374 241C374 242.6 374.5 244 375 244C375.6 244 376 244.9 376 246C376 247.1 376.5 248 377 248C377.6 248 378 248.9 378 250C378 251.1 378.5 252 379 252C379.6 252 380 252.8 380 253.8C380 254.8 380.9 256.2 382 257C383.1 257.8 384 259.1 384 260C384 260.9 384.9 262.2 386 263C387.1 263.8 388 265 388 265.8C388 267.6 383.4 272 381.5 272C380.7 272 380 272.4 380 273C380 273.5 378.7 274 377 274C375.4 274 374 274.4 374 275C374 275.6 367 276 355 276H336V237C336 215.5 336.3 198 336.6 198C336.9 198 338.9 199.8 341 202ZM188 226.6C188 228.2 186.8 230.3 185 232C183.4 233.5 182 235.4 182 236.2C182 236.9 181.1 238.2 180 239C178.9 239.8 178 241.2 178 242.2C178 243.2 177.6 244 177 244C176.5 244 176 244.9 176 246C176 247.1 175.6 248 175 248C174.5 248 174 249.3 174 251C174 252.6 173.6 254 173 254C172.5 254 172 254.9 172 256C172 257.1 171.6 258 171 258C170.5 258 170 259.3 170 261C170 264.4 169.5 264.7 167.4 262.6C165.8 260.9 165.5 258 167 258C167.6 258 168 257.1 168 256C168 254.9 168.5 254 169 254C169.6 254 170 253.1 170 252C170 250.9 170.5 250 171 250C171.6 250 172 249.1 172 248C172 246.9 172.5 246 173 246C173.6 246 174 245.1 174 244C174 242.9 174.5 242 175 242C175.6 242 176 241.1 176 240C176 238.9 176.5 238 177 238C177.6 238 178 237.1 178 236C178 234.9 178.5 234 179 234C179.6 234 180 232.6 180 231C180 229.3 180.5 228 181 228C181.6 228 182 227.1 182 226C182 224.4 182.7 224 185 224C187.6 224 188 224.4 188 226.6ZM106 257C106 257.5 107.4 258 109 258C110.7 258 112 258.4 112 259C112 259.5 112.7 260 113.5 260C116.1 260 122 266.6 122 269.5C122 270.9 122.5 272 123 272C123.6 272 124 273.8 124 276C124 278.2 123.6 280 123 280C122.5 280 122 280.9 122 282C122 283.1 121.6 284 121 284C120.5 284 120 283.3 120 282.5C120 281.6 118.9 279.8 117.5 278.5C115.5 276.4 114.1 276 109 276C103.9 276 102.5 276.4 100.5 278.5C98.4 280.5 98 281.9 98 287C98 292.6 98.3 293.3 101.5 296.5C103.4 298.4 105.6 300 106.5 300C107.3 300 108 300.9 108 302C108 303.1 107.6 304 107 304C106.5 304 106 304.8 106 305.8C106 306.8 105.1 308.2 104 309C102.8 309.8 102 311.6 102 313.2C102 314.7 101.6 316 101 316C100.5 316 100 318.2 100 321C100 323.7 99.6 326 99 326C98.5 326 98 327.8 98 330C98 332.2 98.5 334 99 334C99.6 334 100 336.2 100 339C100 341.7 100.5 344 101 344C101.6 344 102 345.3 102 347C102 348.6 102.5 350 103 350C103.6 350 104 350.9 104 352C104 353.1 104.5 354 105 354C105.6 354 106 355.3 106 357C106 359.1 105.5 360 104.4 360C103.5 360 101.5 358.6 100 357C98.5 355.3 96.7 354 96.1 354C94.5 354 74 333.3 74 331.7C74 331 73.1 329.8 72 329C70.9 328.2 70 326.8 70 325.8C70 324.8 69.6 324 69 324C68.5 324 68 323.1 68 322C68 320.9 67.6 320 67 320C66.5 320 66 319.1 66 318C66 316.9 65.6 316 65 316C64.5 316 64 314.2 64 312C64 309.8 63.6 308 63 308C62.4 308 62 302.7 62 294C62 285.3 62.4 280 63 280C63.6 280 64 279.1 64 278C64 276.9 64.5 276 65 276C65.6 276 66 275.1 66 274C66 272.9 66.5 272 67 272C67.6 272 68 271.3 68 270.5C68 268.6 74.4 262 76.2 262C77 262 78.2 261.1 79 260C79.8 258.8 81.6 258 83.2 258C84.7 258 86 257.5 86 257C86 256.4 90 256 96 256C102 256 106 256.4 106 257ZM476 257C476 257.5 476.9 258 478 258C479.1 258 480 258.4 480 259C480 259.5 480.9 260 482 260C483.1 260 484 260.4 484 261C484 261.5 484.7 262 485.5 262C487.5 262 494 268.5 494 270.5C494 271.3 494.5 272 495 272C495.6 272 496 272.9 496 274C496 275.1 496.5 276 497 276C497.6 276 498 276.9 498 278C498 279.1 498.5 280 499 280C499.6 280 500 285 500 293C500 301 499.6 306 499 306C498.5 306 498 307.8 498 310C498 312.2 497.6 314 497 314C496.5 314 496 315.3 496 317C496 318.6 495.6 320 495 320C494.5 320 494 320.9 494 322C494 323.1 493.6 324 493 324C492.5 324 492 324.8 492 325.8C492 326.8 491.1 328.2 490 329C488.9 329.8 488 331.1 488 331.8C488 332.5 486.2 334.9 484 337C481.8 339.1 480 341.3 480 342C480 343.4 475.4 348 474 348C473.3 348 471.1 349.8 469 352C466.9 354.2 464.5 356 463.8 356C463.1 356 461.8 356.9 461 358C460.2 359.2 458.4 360 456.8 360C453.5 360 453.2 359 456 357C457.2 356.2 458 354.4 458 352.8C458 351.3 458.5 350 459 350C459.6 350 460 349.1 460 348C460 346.9 460.5 346 461 346C461.6 346 462 343.3 462 340C462 336.7 462.4 334 463 334C463.6 334 464 332.2 464 330C464 327.8 463.6 326 463 326C462.5 326 462 323.7 462 321C462 318.2 461.6 316 461 316C460.5 316 460 314.7 460 313.2C460 311.6 459.2 309.8 458 309C456.9 308.2 456 306.8 456 305.8C456 304.8 455.6 304 455 304C454.5 304 454 303.1 454 302C454 300.9 454.7 300 455.5 300C456.4 300 458.6 298.4 460.5 296.5C463.7 293.3 464 292.6 464 287C464 281.9 463.6 280.5 461.5 278.5C459.5 276.4 458.1 276 453 276C447.9 276 446.5 276.4 444.5 278.5C443.1 279.8 442 281.6 442 282.5C442 283.3 441.6 284 441 284C440.5 284 440 283.1 440 282C440 280.9 439.6 280 439 280C438.5 280 438 278.2 438 276C438 273.8 438.5 272 439 272C439.6 272 440 270.9 440 269.5C440 266.6 445.9 260 448.5 260C449.3 260 450 259.5 450 259C450 258.4 451.4 258 453 258C454.7 258 456 257.5 456 257C456 256.4 460 256 466 256C472 256 476 256.4 476 257ZM184 262C184 263.1 184.5 264 185 264C185.6 264 186 264.9 186 266C186 267.1 186.5 268 187 268C187.6 268 188 269.3 188 270.9C188 272.5 188.6 274.1 189.3 274.4C190.3 274.9 190.3 275.1 189.3 275.6C188.6 275.9 188 277 188 278.1C188 279.2 187.3 280 186.4 280C184.5 280 182 277.6 182 275.8C182 275 181.1 273.8 180 273C178.9 272.2 178 270.8 178 269.9C178 268.9 177.4 268 176.8 267.7C175.9 267.4 176.2 266.6 177.8 265.3C179 264.2 180 262.5 180 261.6C180 260.7 180.8 260 182 260C183.3 260 184 260.7 184 262ZM134 309C134 309.6 137.7 310 143 310C148.3 310 152 310.4 152 311C152 311.5 152.7 312 153.6 312C155.6 312 158 314.4 158 316.4C158 317.3 158.5 318 159 318C159.6 318 160 320.2 160 323C160 325.7 159.6 328 159 328C158.5 328 158 328.7 158 329.6C158 330.4 157.4 331.8 156.6 332.6C155.8 333.4 154.4 334 153.6 334C152.7 334 152 334.4 152 335C152 335.5 149.8 336 147 336C144.3 336 142 335.5 142 335C142 334.4 141.3 334 140.5 334C138 334 134 329.4 134 326.5C134 325.1 133.6 324 133 324C132.5 324 132 325.3 132 327C132 328.6 132.5 330 133 330C133.6 330 134 330.7 134 331.5C134 333.5 138.5 338 140.5 338C141.3 338 142 338.4 142 339C142 339.5 143.8 340 146 340C148.2 340 150 339.5 150 339C150 338.4 151.1 338 152.5 338C155.4 338 162 332.1 162 329.5C162 328.7 162.5 328 163 328C163.6 328 164 326.2 164 324C164 321.8 164.5 320 165 320C165.6 320 166 320.8 166 321.8C166 322.8 166.9 324.2 168 325C169.1 325.8 170 327.2 170 328.2C170 329.2 170.5 330 171 330C171.6 330 172 330.8 172 331.8C172 332.8 172.9 334.2 174 335C175.1 335.8 176 337.1 176 337.8C176 338.6 177.4 340.5 179 342C180.7 343.5 182 345.3 182 346C182 346.6 184.8 349.8 188.1 353.1C191.5 356.4 193.9 359.4 193.5 359.8C193.1 360.2 192.5 359.9 192.3 359.2C192 358.6 191 358 189.9 358C188.9 358 188 357.5 188 357C188 356.4 187.1 356 186 356C184.9 356 184 355.5 184 355C184 354.4 183.1 354 182 354C180.9 354 180 353.5 180 353C180 352.4 179.1 352 178 352C176.9 352 176 351.5 176 351C176 350.4 174.7 350 173 350C171.4 350 170 349.5 170 349C170 348.4 168.7 348 167 348C165.4 348 164 347.5 164 347C164 346.4 158.3 346 149 346C139.7 346 134 346.4 134 347C134 347.5 132.2 348 130 348C127.8 348 126 348.4 126 349C126 350.5 121.1 350.2 119.4 348.6C118.6 347.8 118 346 118 344.6C118 343.2 117.6 342 117 342C116.4 342 116 339.4 116 336.1C116 332.3 115.5 330 114.8 329.6C113.8 329.1 113.8 328.9 114.8 328.4C115.4 328.1 116 326.1 116 323.9C116 321.8 116.5 320 117 320C117.6 320 118 319.3 118 318.5C118 317.6 119.6 315.4 121.5 313.5C124.1 310.8 125.8 310 128.5 310C130.4 310 132 309.5 132 309C132 308.4 132.5 308 133 308C133.6 308 134 308.4 134 309ZM430 309C430 309.5 431.6 310 433.5 310C436.4 310 437.9 310.9 441.5 314.5C445.5 318.4 446 319.5 446 323.4C446 326 446.5 328.1 447.3 328.4C448.3 328.9 448.3 329.1 447.3 329.6C446.5 330 446 332.3 446 336.1C446 339.4 445.6 342 445 342C444.5 342 444 342.9 444 344C444 345.1 443.6 346 443 346C442.5 346 442 346.7 442 347.6C442 349.8 438.8 352.9 438.2 351.2C438 350.6 436.5 350 434.9 350C433.3 350 432 349.5 432 349C432 348.4 430.7 348 429 348C427.4 348 426 347.5 426 347C426 346.4 420 346 410 346C400 346 394 346.4 394 347C394 347.5 392.7 348 391 348C389.4 348 388 348.4 388 349C388 349.5 387.1 350 386 350C384.9 350 384 350.4 384 351C384 351.5 383.1 352 382 352C380.9 352 380 352.4 380 353C380 353.5 379.1 354 378 354C376.9 354 376 354.4 376 355C376 355.5 375.1 356 374 356C372.9 356 372 355.5 372 355C372 354.4 372.5 354 373 354C373.6 354 374 353.3 374 352.4C374 351.5 375.4 349.5 377 348C378.7 346.5 380 344.6 380 343.8C380 343.1 380.9 341.8 382 341C383.1 340.2 384 338.9 384 338C384 337.1 384.9 335.8 386 335C387.1 334.2 388 332.8 388 331.8C388 330.8 388.5 330 389 330C389.6 330 390 329.2 390 328.2C390 327.2 390.9 325.8 392 325C393.1 324.2 394 323 394 322.2C394 320.9 396.3 318 397.4 318C397.7 318 398 319.8 398 322C398 324.2 398.5 326 399 326C399.6 326 400 326.9 400 328C400 329.1 400.5 330 401 330C401.6 330 402 330.7 402 331.6C402 333.6 404.4 336 406.4 336C407.3 336 408 336.4 408 337C408 337.5 408.9 338 410 338C411.1 338 412 338.4 412 339C412 339.5 413.8 340 416 340C418.2 340 420 339.5 420 339C420 338.4 420.7 338 421.5 338C423.5 338 428 333.5 428 331.5C428 330.7 428.5 330 429 330C429.6 330 430 328.6 430 327C430 325.3 429.6 324 429 324C428.5 324 428 325.1 428 326.5C428 328.1 426.7 330.4 424.5 332.5C421.4 335.7 420.5 336 415.5 336C412.5 336 410 335.5 410 335C410 334.4 409.3 334 408.4 334C406.4 334 404 331.6 404 329.6C404 328.7 403.6 328 403 328C402.5 328 402 325.7 402 323C402 320.2 402.5 318 403 318C403.6 318 404 317.3 404 316.4C404 314.4 406.4 312 408.4 312C409.3 312 410 311.5 410 311C410 310.4 413.7 310 419 310C424.3 310 428 309.6 428 309C428 308.4 428.5 308 429 308C429.6 308 430 308.4 430 309ZM174 359C174 359.5 175.4 360 177 360C178.7 360 180 360.4 180 361C180 361.5 180.9 362 182 362C183.1 362 184 362.4 184 363C184 363.5 184.9 364 186 364C187.1 364 188 364.4 188 365C188 365.5 188.9 366 190 366C191.1 366 192 366.4 192 367C192 367.5 192.9 368 194 368C195.1 368 196 368.4 196 369C196 369.5 196.8 370 197.8 370C198.8 370 200.2 370.9 201 372C201.8 373.1 203.2 374 204.2 374C205.2 374 206 374.4 206 375C206 375.5 206.9 376 208 376C209.1 376 210 376.4 210 377C210 377.6 207.1 378 203.2 378C197.6 378 196.2 377.7 195 376C194.2 374.9 192.8 374 191.8 374C190.8 374 190 373.5 190 373C190 372.4 189.1 372 188 372C186.9 372 186 371.5 186 371C186 370.4 184.7 370 183 370C181.4 370 180 369.5 180 369C180 368.4 178.2 368 176 368C173.8 368 172 367.5 172 367C172 366.4 167 366 159 366C151 366 146 366.4 146 367C146 368.6 137.1 368.2 135.4 366.6C133.3 364.5 133.7 362 136 362C137.1 362 138 361.5 138 361C138 360.4 139.8 360 142 360C144.2 360 146 359.5 146 359C146 358.4 151.3 358 160 358C168.7 358 174 358.4 174 359ZM414 359C414 359.5 415.4 360 417 360C418.7 360 420 360.4 420 361C420 361.5 421.2 362 422.6 362C424 362 425.8 362.7 426.6 363.5C428 364.8 428 365.2 426.6 366.5C425 368.2 418 368.6 418 367C418 366.4 413 366 405 366C397 366 392 366.4 392 367C392 367.5 390.7 368 389 368C387.4 368 386 368.4 386 369C386 369.5 384.7 370 383 370C381.4 370 380 370.4 380 371C380 371.5 379.1 372 378 372C376.9 372 376 372.4 376 373C376 373.5 375.1 374 374 374C372.9 374 372 374.4 372 375C372 375.5 371.1 376 370 376C368.9 376 368 376.4 368 377C368 377.6 364.3 378 359 378C354.1 378 350 377.7 350 377.4C350 376.3 352.9 374 354.4 374C355.3 374 356 373.5 356 373C356 372.4 356.9 372 358 372C359.1 372 360 371.5 360 371C360 370.4 360.9 370 362 370C363.1 370 364 369.5 364 369C364 368.4 364.8 368 365.8 368C366.8 368 368.2 367.1 369 366C369.8 364.9 371.2 364 372.2 364C373.2 364 374 363.5 374 363C374 362.4 375.4 362 377 362C378.7 362 380 361.5 380 361C380 360.4 381.4 360 383 360C384.7 360 386 359.5 386 359C386 358.4 391.3 358 400 358C408.7 358 414 358.4 414 359ZM444.5 395.5C453.1 404.1 453.8 406 448.2 406C445.6 406 444 406.6 443 408C442.2 409.1 440.8 410 439.8 410C438.8 410 438 410.4 438 411C438 411.5 437.1 412 436 412C434.8 412 434 412.7 434 413.6C434 415.6 431.6 418 429.6 418C428.7 418 428 418.4 428 419C428 419.5 427.3 420 426.4 420C425.5 420 423.9 420.9 422.9 422.1L421.1 424.2L418.3 421.4C416.6 419.7 416 418.5 416.8 418.2C417.5 418 418 417 418 415.9C418 414.9 418.5 414 419 414C419.6 414 420 413.1 420 412C420 410.9 420.5 410 421 410C421.6 410 422 409.1 422 408C422 406.8 422.7 406 423.6 406C425.5 406 428 403.6 428 401.8C428 401 428.9 399.8 430 399C431.1 398.2 432 396.8 432 395.9C432 394.9 432.6 393.9 433.3 393.7C434.2 393.3 434.2 392.9 433.1 392.2C431.9 391.4 431.9 391 433.1 389.6C433.9 388.8 435.1 388.1 435.8 388C436.5 388 440.4 391.4 444.5 395.5ZM132 393C132 394.6 132.5 396 133 396C133.6 396 134 396.7 134 397.6C134 398.4 136.3 401.3 139 404C141.8 406.7 144 409.6 144 410.4C144 411.3 144.5 412 145 412C145.6 412 146 412.9 146 414C146 415.1 146.5 416 147 416C148.5 416 148.2 418.9 146.6 420.6C144.9 422.2 140 422.5 140 421C140 420.4 139.2 420 138.2 420C137.2 420 135.8 419.1 135 418C134.2 416.9 132.8 416 131.8 416C130.8 416 130 415.3 130 414.4C130 412.4 127.6 410 125.6 410C124.7 410 124 409.5 124 409C124 408.4 123.1 408 122 408C120.9 408 120 407.5 120 407C120 406.4 118.2 406 116 406C111.6 406 111 405.2 114 403C115.1 402.2 116 401 116 400.2C116 398.4 122.6 392 124.5 392C125.3 392 126 391.5 126 391C126 390.4 127.4 390 129 390C131.7 390 132 390.3 132 393ZM144 393C144 393.5 146.1 394 148.6 394C153.3 394 156 395.6 156 398.4C156 399.3 156.5 400 157 400C157.6 400 158 403.3 158 408C158 415.2 157.8 416 156.1 416C155 416 154 416.6 153.8 417.2C153.2 418.8 150 415.8 150 413.8C150 413 149.1 411.8 148 411C146.9 410.2 146 408.8 146 407.8C146 406.8 145.6 406 145 406C144.5 406 144 404.2 144 402C144 399.8 143.6 398 143 398C142.5 398 142 397.1 142 396C142 394.9 141.6 394 141 394C140.5 394 140 393.5 140 393C140 392.4 140.9 392 142 392C143.1 392 144 392.4 144 393ZM424 394C424 395.1 423.6 396 423 396C422.5 396 422 396.9 422 398C422 399.1 421.6 400 421 400C420.5 400 420 401.7 420 403.8C420 406.4 419.4 408 418 409C416.9 409.8 416 411.2 416 412.2C416 413.2 415.6 414 415 414C414.5 414 414 414.9 414 416C414 417.1 413.6 418 413 418C412.5 418 412 417.5 412 417C412 416.4 411.1 416 410 416C408.1 416 408 415.3 408 407C408 401.7 408.4 398 409 398C409.6 398 410 397.1 410 396C410 394.4 410.7 394 413 394C414.7 394 416 393.5 416 393C416 392.4 417.8 392 420 392C423.3 392 424 392.3 424 394ZM170 397C170 397.5 171.4 398 173 398C174.7 398 176 398.4 176 399C176 399.5 175.6 400 175 400C174.5 400 174 401.3 174 403C174 404.6 173.6 406 173 406C172.5 406 172 406.9 172 408C172 409.1 171.6 410 171 410C170.5 410 170 410.9 170 412C170 413.1 169.6 414 169 414C168.5 414 168 414.9 168 416C168 417.1 167.6 418 167 418C166.5 418 166 417.5 166 417C166 416.4 164.7 416 163 416H160V408.5C160 402 160.3 400.6 162.3 398.5C164.5 396.1 170 395.1 170 397ZM402 398C402 399.1 402.5 400 403 400C403.6 400 404 403.3 404 408C404 415.2 403.8 416 402.1 416C401 416 400 416.6 399.8 417.2C399.2 418.8 396 415.8 396 413.8C396 413 395.1 411.8 394 411C392.9 410.2 392 408.8 392 407.8C392 406.8 391.6 406 391 406C389.6 406 389.8 399.2 391.3 397.5C392 396.7 394.4 396.1 397.3 396C401.3 396 402 396.3 402 398ZM202.6 399.4C203.4 400.2 204 401.6 204 402.4C204 403.3 204.5 404 205 404C205.6 404 206 404.4 206 405C206 405.5 204.2 406 202 406C199.8 406 198 406.4 198 407C198 407.5 197.2 408 196.2 408C195.2 408 193.8 408.9 193 410C192.2 411.1 190.8 412 189.8 412C188.8 412 188 412.7 188 413.6C188 415.6 185.6 418 183.6 418C182.7 418 182 418.4 182 419C182 419.5 181.3 420 180.4 420C179.5 420 177.9 420.9 176.9 422.1L175.1 424.2L172.3 421.4C170.6 419.7 170 418.5 170.8 418.2C171.5 418 172 417 172 415.9C172 414.9 172.5 414 173 414C173.6 414 174 413.1 174 412C174 410.9 174.5 410 175 410C175.6 410 176 409.1 176 408C176 406.8 176.7 406 177.6 406C179.4 406 182 403.7 182 402C182 401.4 182.6 400.3 183.3 399.5C185 397.5 200.6 397.4 202.6 399.4ZM384.5 403.5C387.5 406.5 390 409.6 390 410.5C390 411.3 390.5 412 391 412C391.6 412 392 412.9 392 414C392 415.1 392.5 416 393 416C394.5 416 394.2 418.9 392.6 420.6C390.9 422.2 386 422.5 386 421C386 420.4 385.2 420 384.2 420C383.2 420 381.8 419.1 381 418C380.2 416.9 378.8 416 377.8 416C376.8 416 376 415.3 376 414.4C376 412.4 373.6 410 371.6 410C370.7 410 370 409.5 370 409C370 408.4 369.1 408 368 408C366.9 408 366 407.5 366 407C366 406.4 364.7 406 363 406C360.7 406 360 405.6 360 404C360 402.9 360.5 402 361 402C361.6 402 362 401.1 362 400C362 398.2 362.7 398 370.5 398H379L384.5 403.5ZM115 412C117.1 414.2 119.6 416 120.4 416C121.3 416 122 416.4 122 417C122 417.5 123.8 418 126 418C128.2 418 130 418.4 130 419C130 419.5 130.8 420 131.8 420C132.8 420 134.2 420.9 135 422C135.8 423.1 137 424 137.8 424C139.4 424 142 426.4 142 428C142 430.9 139 432 131.6 432C127.2 432 124 431.6 124 431C124 430.4 121 430 117 430C113 430 110 430.4 110 431C110 431.5 108.7 432 107 432C104.1 432 104 431.9 104 427C104 424.2 104.5 422 105 422C105.6 422 106 420.6 106 419C106 417.3 106.5 416 107 416C107.6 416 108 414.9 108 413.5C108 411.3 109.6 408.2 110.8 408C111 408 112.9 409.8 115 412ZM208.6 409.4C209.4 410.2 210 411.6 210 412.4C210 413.3 210.5 414 211 414C211.6 414 212 415.3 212 417C212 418.6 212.5 420 213 420C213.6 420 214 422.7 214 426C214 431.3 213.8 432 212 432C210.9 432 210 431.5 210 431C210 430.4 206.7 430 202 430C197.3 430 194 430.4 194 431C194 431.6 190.7 432 186 432C178.8 432 178 431.8 178 430.1C178 429 177.4 428 176.8 427.8C175.1 427.2 178.2 424 180.4 424C181.3 424 182 423.5 182 423C182 422.4 182.8 422 183.8 422C184.8 422 186.2 421.1 187 420C188 418.6 189.6 418 192.2 418C194.3 418 196 417.5 196 417C196 416.4 196.9 416 198 416C199.1 416 200 415.5 200 415C200 414.4 200.9 414 202 414C203.1 414 204 413.3 204 412.5C204 411.1 205.9 408.1 206.8 408C207 408 207.8 408.6 208.6 409.4ZM361 412C363.1 414.2 365.6 416 366.4 416C367.3 416 368 416.4 368 417C368 417.5 369.8 418 372 418C374.2 418 376 418.4 376 419C376 419.5 376.9 420 378 420C379.1 420 380 420.4 380 421C380 421.5 380.7 422 381.5 422C383.3 422 388 426.4 388 428C388 430.9 385 432 377.6 432C373.2 432 370 431.6 370 431C370 430.4 367 430 363 430C359 430 356 430.4 356 431C356 431.5 354.7 432 353 432C350.2 432 350 431.8 350 428C350 425.8 350.5 424 351 424C351.6 424 352 422.2 352 420C352 417.8 352.5 416 353 416C353.6 416 354 415.1 354 414C354 412.9 354.5 412 355 412C355.6 412 356 411.1 356 410C356 407.2 356.6 407.5 361 412ZM454.6 409.4C455.4 410.2 456 411.6 456 412.4C456 413.3 456.5 414 457 414C457.6 414 458 415.3 458 417C458 418.6 458.5 420 459 420C459.6 420 460 422.2 460 425C460 427.7 460.5 430 461 430C461.6 430 462 430.4 462 431C462 431.5 460.7 432 459 432C457.4 432 456 431.5 456 431C456 430.4 453 430 449 430C445 430 442 430.4 442 431C442 431.6 438.3 432 433 432C424.8 432 424 431.8 424 430.1C424 429 423.4 428 422.8 427.8C421.1 427.2 424.2 424 426.4 424C427.3 424 428 423.5 428 423C428 422.4 428.8 422 429.8 422C430.8 422 432.2 421.1 433 420C434 418.6 435.6 418 438.2 418C440.3 418 442 417.5 442 417C442 416.4 442.9 416 444 416C445.1 416 446 415.5 446 415C446 414.4 446.9 414 448 414C449.1 414 450 413.3 450 412.5C450 411.1 451.9 408.1 452.8 408C453 408 453.8 408.6 454.6 409.4ZM110 437C110 437.6 113 438 117 438C121 438 124 437.6 124 437C124 436.4 127.3 436 132 436C139.2 436 140 436.2 140 437.9C140 439 140.6 440 141.2 440.2C142.8 440.8 139.8 444 137.8 444C137 444 135.8 444.9 135 446C134.2 447.1 132.8 448 131.8 448C130.8 448 130 448.4 130 449C130 449.5 128.2 450 126 450C123.8 450 122 450.4 122 451C122 451.5 121.3 452 120.4 452C119.6 452 117.1 453.8 114.9 456.1C111.4 459.7 110.8 460 109.5 458.6C108.7 457.8 108 456.4 108 455.6C108 454.7 107.6 454 107 454C106.5 454 106 452.6 106 451C106 449.3 105.6 448 105 448C104.4 448 104 445.3 104 442V436H107C108.7 436 110 436.4 110 437ZM194 437C194 437.6 197.3 438 202 438C206.7 438 210 437.6 210 437C210 436.4 210.9 436 212 436C213.8 436 214 436.7 214 442C214 445.3 213.6 448 213 448C212.5 448 212 449.8 212 452C212 454.2 211.6 456 211 456C210.5 456 210 456.9 210 458C210 459.2 209.3 460 208.4 460C206.4 460 204 457.6 204 455.6C204 454.7 203.2 454 202 454C200.9 454 200 453.5 200 453C200 452.4 199.1 452 198 452C196.9 452 196 451.5 196 451C196 450.4 194.3 450 192.2 450C189.6 450 188 449.4 187 448C186.2 446.9 184.8 446 183.8 446C182.8 446 182 445.5 182 445C182 444.4 181.1 444 180 444C178.3 444 178 443.3 178 440V436H186C190.7 436 194 436.4 194 437ZM356 437C356 437.6 359 438 363 438C367 438 370 437.6 370 437C370 436.4 373.3 436 378 436C385.2 436 386 436.2 386 437.9C386 439 386.5 440 387.2 440.2C388.8 440.8 383.7 446 381.5 446C380.7 446 380 446.4 380 447C380 447.5 379.1 448 378 448C376.9 448 376 448.4 376 449C376 449.5 374.2 450 372 450C369.8 450 368 450.4 368 451C368 451.5 367.3 452 366.4 452C365.6 452 363.1 453.8 360.9 456.1C357.4 459.7 356.8 460 355.5 458.6C354.7 457.8 354 456.4 354 455.6C354 454.7 353.6 454 353 454C352.5 454 352 452.2 352 450C352 447.8 351.6 446 351 446C350.5 446 350 443.7 350 441C350 436.1 350.1 436 353 436C354.7 436 356 436.4 356 437ZM440 437C440 437.6 443.3 438 448 438C452.7 438 456 437.6 456 437C456 436.4 457.4 436 459 436C460.7 436 462 436.4 462 437C462 437.5 461.6 438 461 438C460.4 438 460 440.7 460 444C460 447.3 459.6 450 459 450C458.5 450 458 451.3 458 453C458 454.6 457.6 456 457 456C456.5 456 456 456.9 456 458C456 459.2 455.3 460 454.4 460C452.4 460 450 457.6 450 455.6C450 454.7 449.2 454 448 454C446.9 454 446 453.5 446 453C446 452.4 445.1 452 444 452C442.9 452 442 451.5 442 451C442 450.4 440.3 450 438.2 450C435.6 450 434 449.4 433 448C432.2 446.9 430.8 446 429.8 446C428.8 446 428 445.5 428 445C428 444.4 427.1 444 426 444C424.3 444 424 443.3 424 440V436H432C436.7 436 440 436.4 440 437ZM145.8 448.7C147.5 450.4 148 451.5 147.2 451.8C146.5 452 146 452.9 146 453.9C146 454.8 145.1 456.2 144 457C142.9 457.8 142 459 142 459.8C142 461.6 139.5 464 137.6 464C136.7 464 136 464.8 136 466C136 467.1 135.6 468 135 468C134.5 468 134 468.9 134 470C134 471.1 133.6 472 133 472C132.5 472 132 473.6 132 475.6C132 477.5 131.3 479.8 130.5 480.7C129.1 482.1 128.7 482 127.1 480.1C126.1 478.9 124.7 478 124.1 478C122.5 478 116 471.4 116 469.8C116 469 115.1 467.8 114 467C112.9 466.2 112 464.8 112 463.8C112 462.4 112.8 462 116 462C118.2 462 120 461.5 120 461C120 460.4 120.9 460 122 460C123.1 460 124 459.5 124 459C124 458.4 124.7 458 125.6 458C126.4 458 127.8 457.4 128.6 456.6C129.4 455.8 130 454.4 130 453.6C130 452.7 130.8 452 131.8 452C132.8 452 134.2 451.1 135 450C135.8 448.9 137.2 448 138.2 448C139.2 448 140 447.5 140 447C140 445.1 143.1 446 145.8 448.7ZM178 447C178 447.5 178.9 448 180 448C181.1 448 182 448.4 182 449C182 449.5 182.7 450 183.6 450C185.6 450 188 452.4 188 454.4C188 455.3 188.8 456 189.8 456C190.8 456 192.2 456.9 193 458C193.8 459.1 195.2 460 196.2 460C197.2 460 198 460.4 198 461C198 461.5 199.8 462 202 462C205.3 462 206 462.3 206 464C206 465.1 205.6 466 205 466C204.5 466 204 466.7 204 467.5C204 469.5 193.5 480 191.5 480C190.7 480 190 480.4 190 481C190 481.5 189.6 482 189 482C188.5 482 188 481.1 188 480C188 478.9 187.6 478 187 478C186.5 478 186 476.3 186 474.2C186 471.6 185.4 470 184 469C182.9 468.2 182 467 182 466.2C182 464.4 179.5 462 177.6 462C176.7 462 176 461.2 176 460C176 458.9 175.6 458 175 458C174.5 458 174 457.3 174 456.4C174 455.5 173.1 453.9 171.9 452.9L169.8 451.1L172.2 448.6C174.5 446.1 178 445.1 178 447ZM391.8 448.7C393.5 450.4 394 451.5 393.2 451.8C392.5 452 392 453 392 454.1C392 455.1 391.6 456 391 456C390.5 456 390 456.7 390 457.6C390 458.4 387.8 461.3 385 464C382.3 466.7 380 469.6 380 470.4C380 471.3 379.6 472 379 472C378.5 472 378 473.6 378 475.6C378 477.5 377.3 479.8 376.5 480.7C375.1 482.1 374.7 482 373.1 480.1C372.1 478.9 370.7 478 370.1 478C368.6 478 364 473.4 364 471.9C364 471.3 362.7 469.5 361 468C356.7 464 357 462 362 462C364.2 462 366 461.5 366 461C366 460.4 366.9 460 368 460C369.1 460 370 459.5 370 459C370 458.4 370.7 458 371.6 458C373.6 458 376 455.6 376 453.6C376 452.7 376.8 452 377.8 452C378.8 452 380.2 451.1 381 450C381.8 448.9 383.2 448 384.2 448C385.2 448 386 447.5 386 447C386 445.1 389.1 446 391.8 448.7ZM424 447C424 447.5 424.9 448 426 448C427.1 448 428 448.4 428 449C428 449.5 428.7 450 429.6 450C430.4 450 432.9 451.8 435 454C437.1 456.2 439.5 458 440.2 458C440.9 458 442.2 458.9 443 460C444 461.4 445.6 462 448.2 462C451.3 462 452 462.4 452 464C452 465.1 451.6 466 451 466C450.5 466 450 466.7 450 467.5C450 469.5 439.5 480 437.5 480C436.7 480 436 480.4 436 481C436 481.5 435.6 482 435 482C434.5 482 434 481.1 434 480.1C434 479 433.4 477.9 432.8 477.7C431.8 477.3 431.9 476.9 433 476C434.1 475.1 434.2 474.7 433.3 474.3C432.6 474.1 432 473.1 432 472.1C432 471.2 431.1 469.8 430 469C428.9 468.2 428 467 428 466.2C428 464.4 425.5 462 423.6 462C422.7 462 422 461.2 422 460C422 458.9 421.6 458 421 458C420.5 458 420 457.1 420 456C420 454.9 419.6 454 419 454C417.6 454 417.8 449.2 419.3 447.5C420.7 445.9 424 445.5 424 447ZM154 453C154 453.5 154.9 454 156 454C157.8 454 158 454.7 158 461C158 465 157.6 468 157 468C156.4 468 156 471.7 156 477C156 482.3 156.4 486 157 486C157.6 486 158 486.9 158 488C158 489.8 157.3 490 152 490C148.7 490 146 489.6 146 489C146 488.4 144.7 488 143 488C141.4 488 140 487.5 140 487C140 486.4 139.3 486 138.4 486C136.6 486 134 483.7 134 482C134 481.4 135.8 479.1 138 477C140.2 474.9 142 472.4 142 471.6C142 470.7 142.5 470 143 470C143.6 470 144 468.2 144 466C144 463.8 144.5 462 145 462C145.6 462 146 461.2 146 460.2C146 459.2 146.9 457.8 148 457C149.1 456.2 150 454.8 150 453.8C150 452.7 150.7 452 152 452C153.1 452 154 452.4 154 453ZM168.6 453.4C169.4 454.2 170 455.5 170 456.2C170 457 170.9 458.2 172 459C173.4 460 174 461.6 174 464.2C174 466.3 174.5 468 175 468C175.6 468 176 468.9 176 470C176 471.1 176.5 472 177 472C177.6 472 178 472.7 178 473.6C178 474.4 179.8 476.9 182.1 479.1C185.7 482.6 186 483.2 184.6 484.5C183.8 485.3 182 486 180.6 486C179.2 486 178 486.4 178 487C178 487.5 176.7 488 175 488C173.4 488 172 488.4 172 489C172 489.6 169.3 490 166 490C160.7 490 160 489.8 160 488C160 486.9 160.5 486 161 486C161.6 486 162 485.1 162 484C162 482.9 162.5 482 163 482C163.6 482 164 479.4 164 476.2C164 471.6 163.6 470.2 162 469C160.3 467.8 160 466.4 160 460.8C160 454.7 160.2 454 162 454C163.1 454 164 453.5 164 453C164 451.5 166.9 451.8 168.6 453.4ZM400 453C400 453.5 400.9 454 402 454C403.8 454 404 454.7 404 462C404 466.7 403.6 470 403 470C402.4 470 402 473 402 477C402 481 402.4 484 403 484C403.6 484 404 485.3 404 487V490H398C394.7 490 392 489.6 392 489C392 488.4 390.7 488 389 488C387.4 488 386 487.5 386 487C386 486.4 385.3 486 384.4 486C382.6 486 380 483.7 380 482C380 480.3 382.6 478 384.4 478C385.3 478 386 477.2 386 476C386 474.9 386.5 474 387 474C387.6 474 388 473.1 388 472C388 470.9 388.5 470 389 470C389.6 470 390 468.3 390 466.2C390 463.6 390.6 462 392 461C393.1 460.2 394 458.8 394 457.8C394 456.8 394.5 456 395 456C395.6 456 396 455.1 396 454C396 452.7 396.7 452 398 452C399.1 452 400 452.4 400 453ZM414.6 453.4C415.4 454.2 416 455.5 416 456.2C416 457 416.9 458.2 418 459C419.4 460 420 461.6 420 464.2C420 466.3 420.5 468 421 468C421.6 468 422 468.9 422 470C422 471.1 422.5 472 423 472C423.6 472 424 472.7 424 473.6C424 474.4 425.8 476.9 428.1 479.1C431.7 482.6 432 483.2 430.6 484.5C429.8 485.3 428.4 486 427.6 486C426.7 486 426 486.4 426 487C426 487.5 424.2 488 422 488C419.8 488 418 488.4 418 489C418 489.5 415.8 490 413 490C408.1 490 408 489.9 408 487C408 485.3 408.5 484 409 484C409.6 484 410 481 410 477C410 473 409.6 470 409 470C408.4 470 408 466.7 408 462C408 454.7 408.2 454 410 454C411.1 454 412 453.5 412 453C412 451.6 412.9 451.8 414.6 453.4Z" fill="white"/>
</svg>
