<?xml version="1.0" standalone="no"?>
<!DOCTYPE svg PUBLIC "-//W3C//DTD SVG 20010904//EN"
 "http://www.w3.org/TR/2001/REC-SVG-20010904/DTD/svg10.dtd">
<svg version="1.0" xmlns="http://www.w3.org/2000/svg"
 width="824.000000pt" height="824.000000pt" viewBox="0 0 824.000000 824.000000"
 preserveAspectRatio="xMidYMid meet">
<metadata>
Created by potrace 1.11, written by Peter Selinger 2001-2013
</metadata>
<g transform="translate(0.000000,824.000000) scale(0.100000,-0.100000)"
fill="#000000" stroke="none">
<path d="M3878 8235 c-2 -2 -44 -6 -93 -10 -134 -9 -180 -14 -340 -41 -747
-123 -1433 -445 -2015 -943 -105 -90 -333 -318 -429 -430 -348 -404 -624 -888
-787 -1379 -42 -127 -112 -380 -119 -427 -2 -11 -10 -51 -18 -90 -8 -38 -18
-92 -22 -118 -3 -27 -8 -59 -11 -70 -2 -12 -6 -46 -10 -75 -3 -29 -7 -63 -9
-74 -27 -137 -26 -708 0 -924 49 -398 163 -834 293 -1126 11 -24 32 -72 48
-108 128 -293 387 -704 594 -944 82 -97 119 -135 255 -272 131 -131 197 -192
294 -270 13 -10 28 -23 35 -29 80 -71 324 -240 472 -327 137 -82 486 -258 510
-258 3 0 20 -7 37 -15 232 -107 725 -237 1027 -271 30 -3 66 -7 80 -10 161
-26 681 -26 905 0 102 12 136 17 245 36 30 5 73 12 95 16 80 12 389 95 522
139 119 41 343 129 391 155 9 5 60 29 113 54 264 126 573 328 834 545 98 81
378 358 464 458 521 605 867 1377 966 2153 3 25 8 61 10 80 28 217 27 709 -1
932 -5 44 -54 345 -58 363 -1 6 -8 37 -15 70 -17 79 -66 257 -103 370 -171
525 -454 1024 -819 1441 -44 50 -345 351 -385 385 -193 163 -373 295 -564 413
-280 173 -612 324 -920 419 -135 42 -386 105 -445 112 -11 1 -87 15 -120 21
-18 4 -195 28 -291 39 -46 6 -611 15 -616 10z"/>
</g>
</svg>
